<?xml version="1.0" encoding="utf-8" ?>
<svg baseProfile="tiny" height="153.786610414" version="1.2" width="126.786611074" xmlns="http://www.w3.org/2000/svg" xmlns:ev="http://www.w3.org/2001/xml-events" xmlns:xlink="http://www.w3.org/1999/xlink"><defs /><g id="paths" stroke="blue"><path d="M 4.893306967,148.893303447 L 121.893304107,148.893303447 L 121.893304107,4.893306967 L 4.893306967,4.893306967 L 4.893306967,148.893303447 Z" fill-opacity="0" stroke-linejoin="round" stroke-width="1.0" /></g><g fill="red" id="holes"><circle cx="85.8933" cy="13.8933" r="1.8602" stroke-width="0.0" /><circle cx="85.8933" cy="22.8933" r="1.8602" stroke-width="0.0" /><circle cx="85.8933" cy="31.8933" r="1.8602" stroke-width="0.0" /><circle cx="85.8933" cy="40.8933" r="1.8602" stroke-width="0.0" /><circle cx="85.8933" cy="49.8933" r="1.8602" stroke-width="0.0" /><circle cx="85.8933" cy="58.8933" r="1.8602" stroke-width="0.0" /><circle cx="85.8933" cy="139.8933" r="1.8602" stroke-width="0.0" /><circle cx="85.8933" cy="130.8933" r="1.8602" stroke-width="0.0" /><circle cx="85.8933" cy="121.8933" r="1.8602" stroke-width="0.0" /><circle cx="85.8933" cy="112.8933" r="1.8602" stroke-width="0.0" /><circle cx="85.8933" cy="103.8933" r="1.8602" stroke-width="0.0" /><circle cx="85.8933" cy="67.8933" r="1.8602" stroke-width="0.0" /><circle cx="85.8933" cy="76.8933" r="1.8602" stroke-width="0.0" /><circle cx="85.8933" cy="85.8933" r="1.8602" stroke-width="0.0" /><circle cx="85.8933" cy="94.8933" r="1.8602" stroke-width="0.0" /><circle cx="94.8933" cy="13.8933" r="1.8602" stroke-width="0.0" /><circle cx="94.8933" cy="22.8933" r="1.8602" stroke-width="0.0" /><circle cx="94.8933" cy="31.8933" r="1.8602" stroke-width="0.0" /><circle cx="94.8933" cy="40.8933" r="1.8602" stroke-width="0.0" /><circle cx="94.8933" cy="49.8933" r="1.8602" stroke-width="0.0" /><circle cx="94.8933" cy="58.8933" r="1.8602" stroke-width="0.0" /><circle cx="94.8933" cy="139.8933" r="1.8602" stroke-width="0.0" /><circle cx="94.8933" cy="130.8933" r="1.8602" stroke-width="0.0" /><circle cx="94.8933" cy="121.8933" r="1.8602" stroke-width="0.0" /><circle cx="94.8933" cy="112.8933" r="1.8602" stroke-width="0.0" /><circle cx="94.8933" cy="103.8933" r="1.8602" stroke-width="0.0" /><circle cx="94.8933" cy="67.8933" r="1.8602" stroke-width="0.0" /><circle cx="94.8933" cy="76.8933" r="1.8602" stroke-width="0.0" /><circle cx="94.8933" cy="85.8933" r="1.8602" stroke-width="0.0" /><circle cx="94.8933" cy="94.8933" r="1.8602" stroke-width="0.0" /><circle cx="103.8933" cy="13.8933" r="1.8602" stroke-width="0.0" /><circle cx="103.8933" cy="22.8933" r="1.8602" stroke-width="0.0" /><circle cx="103.8933" cy="31.8933" r="1.8602" stroke-width="0.0" /><circle cx="103.8933" cy="40.8933" r="1.8602" stroke-width="0.0" /><circle cx="103.8933" cy="49.8933" r="1.8602" stroke-width="0.0" /><circle cx="103.8933" cy="58.8933" r="1.8602" stroke-width="0.0" /><circle cx="103.8933" cy="139.8933" r="1.8602" stroke-width="0.0" /><circle cx="103.8933" cy="130.8933" r="1.8602" stroke-width="0.0" /><circle cx="103.8933" cy="121.8933" r="1.8602" stroke-width="0.0" /><circle cx="103.8933" cy="112.8933" r="1.8602" stroke-width="0.0" /><circle cx="103.8933" cy="103.8933" r="1.8602" stroke-width="0.0" /><circle cx="103.8933" cy="67.8933" r="1.8602" stroke-width="0.0" /><circle cx="103.8933" cy="76.8933" r="1.8602" stroke-width="0.0" /><circle cx="103.8933" cy="85.8933" r="1.8602" stroke-width="0.0" /><circle cx="103.8933" cy="94.8933" r="1.8602" stroke-width="0.0" /><circle cx="112.8933" cy="13.8933" r="1.8602" stroke-width="0.0" /><circle cx="112.8933" cy="22.8933" r="1.8602" stroke-width="0.0" /><circle cx="112.8933" cy="31.8933" r="1.8602" stroke-width="0.0" /><circle cx="112.8933" cy="40.8933" r="1.8602" stroke-width="0.0" /><circle cx="112.8933" cy="49.8933" r="1.8602" stroke-width="0.0" /><circle cx="112.8933" cy="58.8933" r="1.8602" stroke-width="0.0" /><circle cx="112.8933" cy="139.8933" r="1.8602" stroke-width="0.0" /><circle cx="112.8933" cy="130.8933" r="1.8602" stroke-width="0.0" /><circle cx="112.8933" cy="121.8933" r="1.8602" stroke-width="0.0" /><circle cx="112.8933" cy="112.8933" r="1.8602" stroke-width="0.0" /><circle cx="112.8933" cy="103.8933" r="1.8602" stroke-width="0.0" /><circle cx="112.8933" cy="67.8933" r="1.8602" stroke-width="0.0" /><circle cx="112.8933" cy="76.8933" r="1.8602" stroke-width="0.0" /><circle cx="112.8933" cy="85.8933" r="1.8602" stroke-width="0.0" /><circle cx="112.8933" cy="94.8933" r="1.8602" stroke-width="0.0" /><circle cx="76.8933" cy="103.8933" r="1.8602" stroke-width="0.0" /><circle cx="76.8933" cy="112.8933" r="1.8602" stroke-width="0.0" /><circle cx="76.8933" cy="121.8933" r="1.8602" stroke-width="0.0" /><circle cx="76.8933" cy="130.8933" r="1.8602" stroke-width="0.0" /><circle cx="76.8933" cy="139.8933" r="1.8602" stroke-width="0.0" /><circle cx="76.8933" cy="13.8933" r="1.8602" stroke-width="0.0" /><circle cx="76.8933" cy="22.8933" r="1.8602" stroke-width="0.0" /><circle cx="76.8933" cy="31.8933" r="1.8602" stroke-width="0.0" /><circle cx="76.8933" cy="40.8933" r="1.8602" stroke-width="0.0" /><circle cx="76.8933" cy="49.8933" r="1.8602" stroke-width="0.0" /><circle cx="76.8933" cy="58.8933" r="1.8602" stroke-width="0.0" /><circle cx="76.8933" cy="67.8933" r="1.8602" stroke-width="0.0" /><circle cx="76.8933" cy="76.8933" r="1.8602" stroke-width="0.0" /><circle cx="76.8933" cy="85.8933" r="1.8602" stroke-width="0.0" /><circle cx="76.8933" cy="94.8933" r="1.8602" stroke-width="0.0" /><circle cx="63.3933" cy="76.8933" r="3.8976" stroke-width="0.0" /><circle cx="22.8933" cy="13.8933" r="1.8602" stroke-width="0.0" /><circle cx="22.8933" cy="22.8933" r="1.8602" stroke-width="0.0" /><circle cx="22.8933" cy="31.8933" r="1.8602" stroke-width="0.0" /><circle cx="22.8933" cy="40.8933" r="1.8602" stroke-width="0.0" /><circle cx="22.8933" cy="49.8933" r="1.8602" stroke-width="0.0" /><circle cx="22.8933" cy="58.8933" r="1.8602" stroke-width="0.0" /><circle cx="22.8933" cy="139.8933" r="1.8602" stroke-width="0.0" /><circle cx="22.8933" cy="130.8933" r="1.8602" stroke-width="0.0" /><circle cx="22.8933" cy="121.8933" r="1.8602" stroke-width="0.0" /><circle cx="22.8933" cy="112.8933" r="1.8602" stroke-width="0.0" /><circle cx="22.8933" cy="103.8933" r="1.8602" stroke-width="0.0" /><circle cx="22.8933" cy="67.8933" r="1.8602" stroke-width="0.0" /><circle cx="22.8933" cy="76.8933" r="1.8602" stroke-width="0.0" /><circle cx="22.8933" cy="85.8933" r="1.8602" stroke-width="0.0" /><circle cx="22.8933" cy="94.8933" r="1.8602" stroke-width="0.0" /><circle cx="31.8933" cy="13.8933" r="1.8602" stroke-width="0.0" /><circle cx="31.8933" cy="22.8933" r="1.8602" stroke-width="0.0" /><circle cx="31.8933" cy="31.8933" r="1.8602" stroke-width="0.0" /><circle cx="31.8933" cy="40.8933" r="1.8602" stroke-width="0.0" /><circle cx="31.8933" cy="49.8933" r="1.8602" stroke-width="0.0" /><circle cx="31.8933" cy="58.8933" r="1.8602" stroke-width="0.0" /><circle cx="31.8933" cy="139.8933" r="1.8602" stroke-width="0.0" /><circle cx="31.8933" cy="130.8933" r="1.8602" stroke-width="0.0" /><circle cx="31.8933" cy="121.8933" r="1.8602" stroke-width="0.0" /><circle cx="31.8933" cy="112.8933" r="1.8602" stroke-width="0.0" /><circle cx="31.8933" cy="103.8933" r="1.8602" stroke-width="0.0" /><circle cx="31.8933" cy="67.8933" r="1.8602" stroke-width="0.0" /><circle cx="31.8933" cy="76.8933" r="1.8602" stroke-width="0.0" /><circle cx="31.8933" cy="85.8933" r="1.8602" stroke-width="0.0" /><circle cx="31.8933" cy="94.8933" r="1.8602" stroke-width="0.0" /><circle cx="40.8933" cy="13.8933" r="1.8602" stroke-width="0.0" /><circle cx="40.8933" cy="22.8933" r="1.8602" stroke-width="0.0" /><circle cx="40.8933" cy="31.8933" r="1.8602" stroke-width="0.0" /><circle cx="40.8933" cy="40.8933" r="1.8602" stroke-width="0.0" /><circle cx="40.8933" cy="49.8933" r="1.8602" stroke-width="0.0" /><circle cx="40.8933" cy="58.8933" r="1.8602" stroke-width="0.0" /><circle cx="40.8933" cy="139.8933" r="1.8602" stroke-width="0.0" /><circle cx="40.8933" cy="130.8933" r="1.8602" stroke-width="0.0" /><circle cx="40.8933" cy="121.8933" r="1.8602" stroke-width="0.0" /><circle cx="40.8933" cy="112.8933" r="1.8602" stroke-width="0.0" /><circle cx="40.8933" cy="103.8933" r="1.8602" stroke-width="0.0" /><circle cx="40.8933" cy="67.8933" r="1.8602" stroke-width="0.0" /><circle cx="40.8933" cy="76.8933" r="1.8602" stroke-width="0.0" /><circle cx="40.8933" cy="85.8933" r="1.8602" stroke-width="0.0" /><circle cx="40.8933" cy="94.8933" r="1.8602" stroke-width="0.0" /><circle cx="49.8933" cy="13.8933" r="1.8602" stroke-width="0.0" /><circle cx="49.8933" cy="22.8933" r="1.8602" stroke-width="0.0" /><circle cx="49.8933" cy="31.8933" r="1.8602" stroke-width="0.0" /><circle cx="49.8933" cy="40.8933" r="1.8602" stroke-width="0.0" /><circle cx="49.8933" cy="49.8933" r="1.8602" stroke-width="0.0" /><circle cx="49.8933" cy="58.8933" r="1.8602" stroke-width="0.0" /><circle cx="49.8933" cy="139.8933" r="1.8602" stroke-width="0.0" /><circle cx="49.8933" cy="130.8933" r="1.8602" stroke-width="0.0" /><circle cx="49.8933" cy="121.8933" r="1.8602" stroke-width="0.0" /><circle cx="49.8933" cy="112.8933" r="1.8602" stroke-width="0.0" /><circle cx="49.8933" cy="103.8933" r="1.8602" stroke-width="0.0" /><circle cx="49.8933" cy="67.8933" r="1.8602" stroke-width="0.0" /><circle cx="49.8933" cy="76.8933" r="1.8602" stroke-width="0.0" /><circle cx="49.8933" cy="85.8933" r="1.8602" stroke-width="0.0" /><circle cx="49.8933" cy="94.8933" r="1.8602" stroke-width="0.0" /><circle cx="13.8933" cy="103.8933" r="1.8602" stroke-width="0.0" /><circle cx="13.8933" cy="112.8933" r="1.8602" stroke-width="0.0" /><circle cx="13.8933" cy="121.8933" r="1.8602" stroke-width="0.0" /><circle cx="13.8933" cy="130.8933" r="1.8602" stroke-width="0.0" /><circle cx="13.8933" cy="139.8933" r="1.8602" stroke-width="0.0" /><circle cx="13.8933" cy="13.8933" r="1.8602" stroke-width="0.0" /><circle cx="13.8933" cy="22.8933" r="1.8602" stroke-width="0.0" /><circle cx="13.8933" cy="31.8933" r="1.8602" stroke-width="0.0" /><circle cx="13.8933" cy="40.8933" r="1.8602" stroke-width="0.0" /><circle cx="13.8933" cy="49.8933" r="1.8602" stroke-width="0.0" /><circle cx="13.8933" cy="58.8933" r="1.8602" stroke-width="0.0" /><circle cx="13.8933" cy="67.8933" r="1.8602" stroke-width="0.0" /><circle cx="13.8933" cy="76.8933" r="1.8602" stroke-width="0.0" /><circle cx="13.8933" cy="85.8933" r="1.8602" stroke-width="0.0" /><circle cx="13.8933" cy="94.8933" r="1.8602" stroke-width="0.0" /><circle cx="63.3933" cy="122.7933" r="3.8976" stroke-width="0.0" /><circle cx="63.3933" cy="30.9933" r="3.8976" stroke-width="0.0" /></g><g id="rulers" stroke="black" /></svg>