%FSLAX33Y33*%
%MOMM*%
%LNbottom silkscreen_traces*%
%LNbottom silkscreen component 0b8c0f4da174c7f8*%
G36*
G01*
X23158Y41783D02*
X23158Y42510D01*
X22667Y42510D01*
X22667Y42424D01*
X23061Y42424D01*
X23061Y42199D01*
X22720Y42199D01*
X22720Y42113D01*
X23061Y42113D01*
X23061Y41783D01*
X23158Y41783D01*
X23158Y41783D01*
X25362Y42068D02*
X25362Y42154D01*
X25054Y42154D01*
X25054Y41884D01*
X25090Y41858D01*
X25126Y41835D01*
X25163Y41815D01*
X25201Y41799D01*
X25239Y41787D01*
X25277Y41778D01*
X25316Y41772D01*
X25355Y41771D01*
X25408Y41773D01*
X25458Y41782D01*
X25505Y41796D01*
X25550Y41816D01*
X25591Y41842D01*
X25627Y41873D01*
X25657Y41908D01*
X25682Y41949D01*
X25702Y41994D01*
X25716Y42041D01*
X25724Y42091D01*
X25727Y42143D01*
X25724Y42195D01*
X25716Y42246D01*
X25702Y42294D01*
X25683Y42341D01*
X25658Y42384D01*
X25628Y42422D01*
X25594Y42453D01*
X25555Y42478D01*
X25512Y42498D01*
X25465Y42512D01*
X25416Y42520D01*
X25363Y42523D01*
X25324Y42521D01*
X25288Y42516D01*
X25253Y42508D01*
X25220Y42497D01*
X25190Y42483D01*
X25163Y42467D01*
X25140Y42448D01*
X25120Y42426D01*
X25103Y42401D01*
X25088Y42373D01*
X25076Y42342D01*
X25065Y42307D01*
X25152Y42283D01*
X25161Y42309D01*
X25170Y42333D01*
X25181Y42353D01*
X25193Y42370D01*
X25206Y42385D01*
X25222Y42399D01*
X25241Y42411D01*
X25262Y42421D01*
X25285Y42430D01*
X25310Y42436D01*
X25335Y42439D01*
X25362Y42440D01*
X25394Y42439D01*
X25424Y42435D01*
X25451Y42429D01*
X25476Y42420D01*
X25499Y42409D01*
X25520Y42397D01*
X25538Y42383D01*
X25554Y42367D01*
X25568Y42351D01*
X25580Y42333D01*
X25591Y42315D01*
X25600Y42295D01*
X25612Y42261D01*
X25621Y42225D01*
X25626Y42188D01*
X25628Y42149D01*
X25626Y42102D01*
X25619Y42060D01*
X25609Y42021D01*
X25594Y41986D01*
X25576Y41956D01*
X25553Y41929D01*
X25527Y41907D01*
X25497Y41889D01*
X25464Y41875D01*
X25431Y41865D01*
X25396Y41859D01*
X25361Y41857D01*
X25330Y41859D01*
X25299Y41863D01*
X25269Y41871D01*
X25239Y41881D01*
X25211Y41894D01*
X25186Y41906D01*
X25166Y41919D01*
X25148Y41933D01*
X25148Y42068D01*
X25362Y42068D01*
X25362Y42068D01*
X28240Y41783D02*
X28240Y42510D01*
X28143Y42510D01*
X28143Y42212D01*
X27765Y42212D01*
X27765Y42510D01*
X27669Y42510D01*
X27669Y41783D01*
X27765Y41783D01*
X27765Y42126D01*
X28143Y42126D01*
X28143Y41783D01*
X28240Y41783D01*
X28240Y41783D01*
X30766Y41783D02*
X30766Y42510D01*
X30670Y42510D01*
X30670Y41783D01*
X30766Y41783D01*
X30766Y41783D01*
X33372Y41989D02*
X33285Y42001D01*
X33282Y41963D01*
X33275Y41931D01*
X33266Y41906D01*
X33254Y41887D01*
X33238Y41874D01*
X33221Y41864D01*
X33200Y41858D01*
X33177Y41856D01*
X33159Y41857D01*
X33143Y41861D01*
X33128Y41866D01*
X33114Y41873D01*
X33102Y41882D01*
X33092Y41893D01*
X33084Y41905D01*
X33078Y41918D01*
X33074Y41935D01*
X33071Y41955D01*
X33069Y41980D01*
X33068Y42009D01*
X33068Y42510D01*
X32972Y42510D01*
X32972Y42015D01*
X32973Y41972D01*
X32977Y41934D01*
X32984Y41901D01*
X32994Y41873D01*
X33007Y41850D01*
X33022Y41829D01*
X33042Y41812D01*
X33064Y41797D01*
X33089Y41785D01*
X33116Y41777D01*
X33145Y41772D01*
X33176Y41771D01*
X33221Y41774D01*
X33261Y41784D01*
X33295Y41802D01*
X33323Y41826D01*
X33345Y41857D01*
X33361Y41894D01*
X33369Y41938D01*
X33372Y41989D01*
X33372Y41989D01*
X34292Y40259D02*
X34382Y40259D01*
X34382Y40828D01*
X34399Y40813D01*
X34419Y40797D01*
X34441Y40782D01*
X34466Y40767D01*
X34492Y40752D01*
X34516Y40740D01*
X34539Y40729D01*
X34560Y40720D01*
X34560Y40807D01*
X34524Y40825D01*
X34490Y40846D01*
X34459Y40868D01*
X34429Y40892D01*
X34403Y40917D01*
X34382Y40941D01*
X34364Y40965D01*
X34350Y40989D01*
X34292Y40989D01*
X34292Y40259D01*
X34292Y40259D01*
X34160Y37805D02*
X34160Y37719D01*
X34640Y37719D01*
X34640Y37735D01*
X34638Y37751D01*
X34635Y37766D01*
X34630Y37781D01*
X34619Y37805D01*
X34606Y37830D01*
X34590Y37854D01*
X34571Y37878D01*
X34549Y37902D01*
X34522Y37929D01*
X34490Y37958D01*
X34454Y37988D01*
X34400Y38034D01*
X34355Y38075D01*
X34320Y38111D01*
X34294Y38142D01*
X34276Y38170D01*
X34263Y38197D01*
X34255Y38224D01*
X34252Y38249D01*
X34255Y38275D01*
X34262Y38298D01*
X34274Y38320D01*
X34290Y38339D01*
X34311Y38355D01*
X34334Y38366D01*
X34360Y38373D01*
X34389Y38375D01*
X34420Y38373D01*
X34447Y38366D01*
X34471Y38354D01*
X34492Y38337D01*
X34509Y38315D01*
X34522Y38290D01*
X34529Y38262D01*
X34532Y38229D01*
X34623Y38239D01*
X34615Y38287D01*
X34601Y38329D01*
X34580Y38365D01*
X34552Y38395D01*
X34519Y38419D01*
X34480Y38436D01*
X34436Y38446D01*
X34387Y38449D01*
X34338Y38446D01*
X34293Y38435D01*
X34255Y38417D01*
X34222Y38391D01*
X34195Y38360D01*
X34176Y38326D01*
X34164Y38289D01*
X34161Y38247D01*
X34162Y38226D01*
X34165Y38204D01*
X34171Y38183D01*
X34178Y38162D01*
X34189Y38140D01*
X34202Y38118D01*
X34218Y38096D01*
X34238Y38073D01*
X34262Y38047D01*
X34293Y38017D01*
X34331Y37983D01*
X34375Y37945D01*
X34412Y37914D01*
X34441Y37888D01*
X34464Y37868D01*
X34479Y37853D01*
X34489Y37841D01*
X34499Y37829D01*
X34508Y37817D01*
X34516Y37805D01*
X34160Y37805D01*
X34160Y37805D01*
X34628Y35371D02*
X34539Y35383D01*
X34530Y35348D01*
X34518Y35318D01*
X34504Y35293D01*
X34487Y35274D01*
X34467Y35259D01*
X34446Y35248D01*
X34422Y35242D01*
X34397Y35240D01*
X34366Y35243D01*
X34339Y35251D01*
X34313Y35265D01*
X34290Y35284D01*
X34271Y35307D01*
X34258Y35333D01*
X34250Y35361D01*
X34247Y35392D01*
X34249Y35421D01*
X34257Y35448D01*
X34269Y35472D01*
X34287Y35493D01*
X34308Y35511D01*
X34333Y35523D01*
X34360Y35531D01*
X34389Y35533D01*
X34403Y35533D01*
X34418Y35531D01*
X34434Y35528D01*
X34452Y35523D01*
X34442Y35602D01*
X34438Y35601D01*
X34434Y35601D01*
X34431Y35601D01*
X34428Y35601D01*
X34400Y35603D01*
X34374Y35608D01*
X34349Y35617D01*
X34325Y35630D01*
X34305Y35647D01*
X34291Y35668D01*
X34282Y35693D01*
X34280Y35722D01*
X34282Y35746D01*
X34288Y35767D01*
X34298Y35786D01*
X34313Y35804D01*
X34331Y35818D01*
X34351Y35828D01*
X34374Y35834D01*
X34399Y35836D01*
X34424Y35834D01*
X34446Y35828D01*
X34467Y35817D01*
X34485Y35803D01*
X34501Y35785D01*
X34514Y35762D01*
X34524Y35736D01*
X34530Y35705D01*
X34619Y35721D01*
X34609Y35763D01*
X34593Y35800D01*
X34571Y35833D01*
X34545Y35860D01*
X34514Y35881D01*
X34480Y35897D01*
X34442Y35906D01*
X34401Y35909D01*
X34371Y35908D01*
X34343Y35903D01*
X34317Y35895D01*
X34291Y35884D01*
X34267Y35870D01*
X34247Y35854D01*
X34229Y35835D01*
X34214Y35814D01*
X34203Y35792D01*
X34194Y35768D01*
X34189Y35745D01*
X34188Y35720D01*
X34189Y35697D01*
X34194Y35675D01*
X34202Y35654D01*
X34213Y35634D01*
X34227Y35616D01*
X34244Y35600D01*
X34265Y35585D01*
X34288Y35573D01*
X34258Y35563D01*
X34231Y35550D01*
X34207Y35533D01*
X34188Y35511D01*
X34172Y35486D01*
X34161Y35458D01*
X34154Y35428D01*
X34152Y35394D01*
X34156Y35348D01*
X34169Y35306D01*
X34191Y35267D01*
X34222Y35232D01*
X34259Y35203D01*
X34300Y35183D01*
X34346Y35170D01*
X34397Y35166D01*
X34443Y35170D01*
X34485Y35180D01*
X34522Y35198D01*
X34556Y35223D01*
X34584Y35254D01*
X34606Y35289D01*
X34620Y35328D01*
X34628Y35371D01*
X34628Y35371D01*
X34343Y32639D02*
X34343Y32813D01*
X34658Y32813D01*
X34658Y32895D01*
X34399Y33263D01*
X34343Y33223D01*
X34570Y32895D01*
X34343Y32895D01*
X34343Y32895D01*
X34343Y33223D01*
X34399Y33263D01*
X34326Y33366D01*
X34253Y33366D01*
X34253Y32895D01*
X34155Y32895D01*
X34155Y32813D01*
X34253Y32813D01*
X34253Y32639D01*
X34343Y32639D01*
X34343Y32639D01*
X34629Y30290D02*
X34535Y30297D01*
X34528Y30265D01*
X34518Y30237D01*
X34504Y30214D01*
X34487Y30194D01*
X34467Y30179D01*
X34445Y30169D01*
X34421Y30162D01*
X34395Y30160D01*
X34364Y30163D01*
X34336Y30172D01*
X34310Y30187D01*
X34286Y30209D01*
X34266Y30235D01*
X34253Y30265D01*
X34244Y30299D01*
X34241Y30338D01*
X34244Y30374D01*
X34252Y30406D01*
X34266Y30434D01*
X34284Y30458D01*
X34307Y30477D01*
X34334Y30491D01*
X34364Y30500D01*
X34397Y30502D01*
X34418Y30501D01*
X34438Y30497D01*
X34457Y30491D01*
X34475Y30483D01*
X34491Y30472D01*
X34506Y30460D01*
X34518Y30447D01*
X34529Y30432D01*
X34613Y30443D01*
X34543Y30816D01*
X34181Y30816D01*
X34181Y30731D01*
X34471Y30731D01*
X34510Y30536D01*
X34477Y30556D01*
X34443Y30570D01*
X34408Y30578D01*
X34373Y30581D01*
X34327Y30577D01*
X34285Y30565D01*
X34247Y30544D01*
X34212Y30515D01*
X34183Y30480D01*
X34163Y30440D01*
X34151Y30395D01*
X34147Y30346D01*
X34150Y30298D01*
X34161Y30254D01*
X34179Y30213D01*
X34204Y30175D01*
X34242Y30136D01*
X34287Y30109D01*
X34338Y30092D01*
X34395Y30087D01*
X34443Y30090D01*
X34485Y30100D01*
X34523Y30118D01*
X34557Y30142D01*
X34585Y30172D01*
X34606Y30207D01*
X34621Y30246D01*
X34629Y30290D01*
X34629Y30290D01*
X34165Y28108D02*
X34254Y28101D01*
X34261Y28126D01*
X34269Y28147D01*
X34278Y28164D01*
X34288Y28178D01*
X34307Y28194D01*
X34328Y28206D01*
X34352Y28213D01*
X34377Y28216D01*
X34398Y28214D01*
X34417Y28210D01*
X34435Y28202D01*
X34452Y28192D01*
X34472Y28175D01*
X34490Y28154D01*
X34505Y28130D01*
X34519Y28102D01*
X34529Y28070D01*
X34537Y28031D01*
X34542Y27985D01*
X34544Y27934D01*
X34497Y27897D01*
X34506Y27885D01*
X34520Y27858D01*
X34527Y27828D01*
X34530Y27795D01*
X34530Y27795D01*
X34529Y27772D01*
X34525Y27749D01*
X34519Y27728D01*
X34511Y27706D01*
X34500Y27687D01*
X34487Y27669D01*
X34472Y27654D01*
X34456Y27642D01*
X34438Y27632D01*
X34420Y27626D01*
X34401Y27621D01*
X34382Y27620D01*
X34354Y27623D01*
X34329Y27631D01*
X34306Y27646D01*
X34285Y27666D01*
X34267Y27691D01*
X34254Y27719D01*
X34246Y27753D01*
X34244Y27790D01*
X34246Y27825D01*
X34254Y27857D01*
X34266Y27885D01*
X34284Y27908D01*
X34305Y27927D01*
X34329Y27941D01*
X34356Y27949D01*
X34385Y27952D01*
X34414Y27949D01*
X34441Y27941D01*
X34466Y27927D01*
X34488Y27908D01*
X34497Y27897D01*
X34544Y27934D01*
X34527Y27957D01*
X34508Y27977D01*
X34488Y27993D01*
X34465Y28007D01*
X34442Y28017D01*
X34417Y28025D01*
X34393Y28029D01*
X34367Y28031D01*
X34324Y28027D01*
X34285Y28014D01*
X34248Y27994D01*
X34215Y27965D01*
X34188Y27930D01*
X34168Y27890D01*
X34157Y27845D01*
X34153Y27795D01*
X34154Y27762D01*
X34160Y27729D01*
X34169Y27698D01*
X34182Y27668D01*
X34198Y27640D01*
X34217Y27616D01*
X34239Y27595D01*
X34263Y27578D01*
X34290Y27564D01*
X34318Y27554D01*
X34348Y27549D01*
X34380Y27547D01*
X34434Y27552D01*
X34482Y27567D01*
X34525Y27593D01*
X34562Y27629D01*
X34593Y27676D01*
X34615Y27737D01*
X34628Y27812D01*
X34633Y27899D01*
X34628Y27998D01*
X34613Y28081D01*
X34589Y28151D01*
X34555Y28206D01*
X34518Y28242D01*
X34475Y28268D01*
X34426Y28284D01*
X34372Y28289D01*
X34331Y28286D01*
X34294Y28277D01*
X34261Y28262D01*
X34231Y28241D01*
X34207Y28215D01*
X34187Y28184D01*
X34174Y28148D01*
X34165Y28108D01*
X34165Y28108D01*
X34623Y25651D02*
X34623Y25737D01*
X34152Y25737D01*
X34152Y25667D01*
X34187Y25627D01*
X34221Y25581D01*
X34256Y25529D01*
X34290Y25471D01*
X34322Y25409D01*
X34350Y25347D01*
X34375Y25283D01*
X34395Y25219D01*
X34407Y25172D01*
X34417Y25123D01*
X34424Y25072D01*
X34429Y25019D01*
X34521Y25019D01*
X34519Y25064D01*
X34512Y25114D01*
X34502Y25168D01*
X34487Y25226D01*
X34470Y25287D01*
X34448Y25346D01*
X34423Y25404D01*
X34395Y25461D01*
X34364Y25515D01*
X34333Y25565D01*
X34300Y25610D01*
X34267Y25651D01*
X34623Y25651D01*
X34623Y25651D01*
X34491Y22873D02*
X34462Y22818D01*
X34475Y22811D01*
X34497Y22793D01*
X34515Y22771D01*
X34528Y22746D01*
X34535Y22719D01*
X34538Y22689D01*
X34538Y22689D01*
X34537Y22670D01*
X34534Y22651D01*
X34528Y22633D01*
X34520Y22615D01*
X34510Y22598D01*
X34497Y22583D01*
X34483Y22570D01*
X34466Y22560D01*
X34448Y22551D01*
X34429Y22545D01*
X34409Y22541D01*
X34389Y22540D01*
X34359Y22543D01*
X34331Y22550D01*
X34306Y22563D01*
X34284Y22581D01*
X34265Y22603D01*
X34252Y22628D01*
X34244Y22656D01*
X34242Y22686D01*
X34245Y22717D01*
X34253Y22745D01*
X34266Y22770D01*
X34285Y22793D01*
X34308Y22811D01*
X34333Y22824D01*
X34361Y22832D01*
X34392Y22835D01*
X34422Y22832D01*
X34450Y22824D01*
X34462Y22818D01*
X34491Y22873D01*
X34458Y22926D01*
X34438Y22916D01*
X34415Y22910D01*
X34390Y22908D01*
X34365Y22910D01*
X34343Y22916D01*
X34323Y22926D01*
X34305Y22940D01*
X34291Y22957D01*
X34280Y22976D01*
X34274Y22997D01*
X34272Y23020D01*
X34274Y23043D01*
X34281Y23065D01*
X34291Y23085D01*
X34306Y23102D01*
X34324Y23117D01*
X34344Y23127D01*
X34366Y23134D01*
X34391Y23136D01*
X34415Y23134D01*
X34437Y23128D01*
X34458Y23117D01*
X34476Y23103D01*
X34490Y23086D01*
X34501Y23067D01*
X34507Y23047D01*
X34509Y23025D01*
X34509Y23025D01*
X34507Y23000D01*
X34501Y22978D01*
X34491Y22958D01*
X34476Y22940D01*
X34458Y22926D01*
X34491Y22873D01*
X34517Y22885D01*
X34540Y22898D01*
X34559Y22914D01*
X34574Y22931D01*
X34585Y22951D01*
X34594Y22973D01*
X34599Y22996D01*
X34601Y23022D01*
X34597Y23060D01*
X34586Y23095D01*
X34568Y23127D01*
X34544Y23155D01*
X34513Y23179D01*
X34477Y23196D01*
X34437Y23206D01*
X34392Y23209D01*
X34346Y23206D01*
X34306Y23195D01*
X34270Y23178D01*
X34238Y23154D01*
X34213Y23125D01*
X34195Y23093D01*
X34184Y23057D01*
X34180Y23019D01*
X34182Y22995D01*
X34187Y22972D01*
X34195Y22951D01*
X34207Y22931D01*
X34222Y22914D01*
X34240Y22898D01*
X34262Y22885D01*
X34288Y22873D01*
X34256Y22861D01*
X34229Y22845D01*
X34205Y22826D01*
X34186Y22803D01*
X34170Y22777D01*
X34159Y22750D01*
X34153Y22719D01*
X34151Y22687D01*
X34155Y22642D01*
X34167Y22601D01*
X34188Y22564D01*
X34217Y22530D01*
X34252Y22502D01*
X34293Y22482D01*
X34339Y22471D01*
X34390Y22467D01*
X34441Y22471D01*
X34487Y22483D01*
X34528Y22502D01*
X34564Y22530D01*
X34593Y22564D01*
X34613Y22602D01*
X34626Y22644D01*
X34630Y22689D01*
X34628Y22723D01*
X34621Y22755D01*
X34610Y22783D01*
X34594Y22808D01*
X34574Y22830D01*
X34550Y22848D01*
X34523Y22863D01*
X34491Y22873D01*
X34491Y22873D01*
X34615Y20107D02*
X34530Y20115D01*
X34523Y20087D01*
X34514Y20063D01*
X34502Y20043D01*
X34488Y20027D01*
X34471Y20015D01*
X34453Y20007D01*
X34432Y20002D01*
X34409Y20000D01*
X34389Y20001D01*
X34370Y20005D01*
X34353Y20011D01*
X34337Y20019D01*
X34322Y20029D01*
X34309Y20041D01*
X34297Y20054D01*
X34286Y20069D01*
X34277Y20086D01*
X34268Y20106D01*
X34260Y20129D01*
X34253Y20154D01*
X34247Y20181D01*
X34243Y20208D01*
X34240Y20236D01*
X34239Y20263D01*
X34239Y20267D01*
X34240Y20271D01*
X34240Y20276D01*
X34240Y20281D01*
X34285Y20314D01*
X34272Y20332D01*
X34260Y20360D01*
X34252Y20392D01*
X34250Y20428D01*
X34250Y20428D01*
X34252Y20465D01*
X34260Y20497D01*
X34273Y20526D01*
X34291Y20550D01*
X34312Y20570D01*
X34336Y20584D01*
X34361Y20593D01*
X34389Y20595D01*
X34418Y20592D01*
X34445Y20583D01*
X34470Y20568D01*
X34493Y20547D01*
X34512Y20521D01*
X34526Y20491D01*
X34534Y20458D01*
X34537Y20421D01*
X34534Y20388D01*
X34527Y20358D01*
X34513Y20331D01*
X34495Y20308D01*
X34473Y20289D01*
X34448Y20275D01*
X34421Y20267D01*
X34392Y20264D01*
X34362Y20267D01*
X34335Y20275D01*
X34311Y20289D01*
X34290Y20308D01*
X34285Y20314D01*
X34240Y20281D01*
X34255Y20261D01*
X34272Y20243D01*
X34291Y20226D01*
X34313Y20212D01*
X34337Y20200D01*
X34361Y20192D01*
X34387Y20187D01*
X34414Y20186D01*
X34457Y20190D01*
X34497Y20202D01*
X34533Y20222D01*
X34566Y20251D01*
X34594Y20286D01*
X34613Y20327D01*
X34625Y20373D01*
X34629Y20424D01*
X34625Y20476D01*
X34613Y20524D01*
X34592Y20565D01*
X34564Y20602D01*
X34529Y20631D01*
X34490Y20652D01*
X34447Y20665D01*
X34400Y20669D01*
X34365Y20667D01*
X34332Y20660D01*
X34301Y20648D01*
X34270Y20631D01*
X34243Y20610D01*
X34219Y20585D01*
X34198Y20555D01*
X34181Y20522D01*
X34168Y20483D01*
X34158Y20436D01*
X34153Y20381D01*
X34151Y20318D01*
X34152Y20251D01*
X34158Y20192D01*
X34168Y20140D01*
X34181Y20096D01*
X34198Y20057D01*
X34219Y20023D01*
X34243Y19994D01*
X34271Y19970D01*
X34302Y19951D01*
X34336Y19937D01*
X34372Y19929D01*
X34411Y19927D01*
X34452Y19930D01*
X34489Y19938D01*
X34521Y19953D01*
X34550Y19974D01*
X34575Y20000D01*
X34594Y20031D01*
X34607Y20067D01*
X34615Y20107D01*
X34615Y20107D01*
X34851Y14859D02*
X34941Y14859D01*
X34941Y15428D01*
X34958Y15413D01*
X34978Y15397D01*
X35000Y15382D01*
X35025Y15367D01*
X35051Y15352D01*
X35075Y15340D01*
X35098Y15329D01*
X35119Y15320D01*
X35119Y15407D01*
X35083Y15425D01*
X35049Y15446D01*
X35017Y15468D01*
X34988Y15492D01*
X34962Y15517D01*
X34940Y15541D01*
X34923Y15565D01*
X34909Y15589D01*
X34851Y15589D01*
X34851Y14859D01*
X34851Y14859D01*
X34362Y14859D02*
X34451Y14859D01*
X34451Y15428D01*
X34468Y15413D01*
X34488Y15397D01*
X34511Y15382D01*
X34536Y15367D01*
X34561Y15352D01*
X34585Y15340D01*
X34608Y15329D01*
X34630Y15320D01*
X34630Y15407D01*
X34593Y15425D01*
X34559Y15446D01*
X34528Y15468D01*
X34499Y15492D01*
X34473Y15517D01*
X34451Y15541D01*
X34433Y15565D01*
X34419Y15589D01*
X34362Y15589D01*
X34362Y14859D01*
X34362Y14859D01*
X34851Y17399D02*
X34941Y17399D01*
X34941Y17968D01*
X34958Y17953D01*
X34978Y17937D01*
X35000Y17922D01*
X35025Y17907D01*
X35051Y17892D01*
X35075Y17880D01*
X35098Y17869D01*
X35119Y17860D01*
X35119Y17947D01*
X35083Y17965D01*
X35049Y17986D01*
X35017Y18008D01*
X34988Y18032D01*
X34962Y18057D01*
X34940Y18081D01*
X34923Y18105D01*
X34909Y18129D01*
X34851Y18129D01*
X34851Y17399D01*
X34851Y17399D01*
X34623Y17758D02*
X34621Y17819D01*
X34616Y17874D01*
X34608Y17923D01*
X34596Y17965D01*
X34581Y18002D01*
X34563Y18035D01*
X34542Y18063D01*
X34517Y18087D01*
X34489Y18105D01*
X34458Y18119D01*
X34423Y18127D01*
X34385Y18129D01*
X34357Y18128D01*
X34330Y18123D01*
X34306Y18116D01*
X34283Y18106D01*
X34262Y18093D01*
X34242Y18077D01*
X34225Y18059D01*
X34210Y18038D01*
X34196Y18014D01*
X34184Y17988D01*
X34174Y17960D01*
X34165Y17930D01*
X34158Y17895D01*
X34152Y17855D01*
X34149Y17809D01*
X34148Y17758D01*
X34150Y17697D01*
X34155Y17642D01*
X34163Y17593D01*
X34175Y17551D01*
X34189Y17514D01*
X34207Y17481D01*
X34229Y17453D01*
X34253Y17430D01*
X34281Y17411D01*
X34312Y17397D01*
X34347Y17389D01*
X34385Y17387D01*
X34392Y17387D01*
X34385Y17460D01*
X34356Y17464D01*
X34329Y17475D01*
X34304Y17494D01*
X34282Y17520D01*
X34264Y17557D01*
X34251Y17609D01*
X34243Y17676D01*
X34240Y17758D01*
X34243Y17840D01*
X34251Y17907D01*
X34264Y17959D01*
X34282Y17996D01*
X34304Y18022D01*
X34329Y18041D01*
X34356Y18052D01*
X34386Y18055D01*
X34416Y18052D01*
X34442Y18042D01*
X34465Y18026D01*
X34485Y18003D01*
X34505Y17963D01*
X34519Y17909D01*
X34528Y17840D01*
X34531Y17758D01*
X34531Y17758D01*
X34528Y17676D01*
X34520Y17609D01*
X34507Y17556D01*
X34489Y17519D01*
X34467Y17493D01*
X34442Y17475D01*
X34415Y17464D01*
X34385Y17460D01*
X34392Y17387D01*
X34435Y17391D01*
X34479Y17405D01*
X34518Y17429D01*
X34551Y17462D01*
X34582Y17515D01*
X34605Y17581D01*
X34618Y17662D01*
X34623Y17758D01*
X34623Y17758D01*
X34851Y9779D02*
X34941Y9779D01*
X34941Y10348D01*
X34958Y10333D01*
X34978Y10317D01*
X35000Y10302D01*
X35025Y10287D01*
X35051Y10272D01*
X35075Y10260D01*
X35098Y10249D01*
X35119Y10240D01*
X35119Y10327D01*
X35083Y10345D01*
X35049Y10366D01*
X35017Y10388D01*
X34988Y10412D01*
X34962Y10437D01*
X34940Y10461D01*
X34923Y10485D01*
X34909Y10509D01*
X34851Y10509D01*
X34851Y9779D01*
X34851Y9779D01*
X34622Y9971D02*
X34533Y9983D01*
X34524Y9948D01*
X34512Y9918D01*
X34498Y9893D01*
X34480Y9874D01*
X34461Y9859D01*
X34439Y9848D01*
X34416Y9842D01*
X34390Y9840D01*
X34360Y9843D01*
X34332Y9851D01*
X34307Y9865D01*
X34284Y9884D01*
X34265Y9907D01*
X34251Y9933D01*
X34243Y9961D01*
X34241Y9992D01*
X34243Y10021D01*
X34251Y10048D01*
X34263Y10072D01*
X34281Y10093D01*
X34302Y10111D01*
X34326Y10123D01*
X34353Y10131D01*
X34383Y10133D01*
X34396Y10133D01*
X34411Y10131D01*
X34428Y10128D01*
X34446Y10123D01*
X34436Y10202D01*
X34432Y10201D01*
X34428Y10201D01*
X34425Y10201D01*
X34422Y10201D01*
X34394Y10203D01*
X34367Y10208D01*
X34342Y10217D01*
X34319Y10230D01*
X34299Y10247D01*
X34285Y10268D01*
X34276Y10293D01*
X34273Y10322D01*
X34275Y10346D01*
X34282Y10367D01*
X34292Y10386D01*
X34307Y10404D01*
X34324Y10418D01*
X34345Y10428D01*
X34367Y10434D01*
X34392Y10436D01*
X34417Y10434D01*
X34440Y10428D01*
X34461Y10417D01*
X34479Y10403D01*
X34495Y10385D01*
X34508Y10362D01*
X34517Y10336D01*
X34524Y10305D01*
X34613Y10321D01*
X34602Y10363D01*
X34586Y10400D01*
X34565Y10433D01*
X34539Y10460D01*
X34508Y10481D01*
X34474Y10497D01*
X34436Y10506D01*
X34394Y10509D01*
X34365Y10508D01*
X34337Y10503D01*
X34310Y10495D01*
X34285Y10484D01*
X34261Y10470D01*
X34241Y10454D01*
X34223Y10435D01*
X34208Y10414D01*
X34196Y10392D01*
X34188Y10368D01*
X34183Y10345D01*
X34182Y10320D01*
X34183Y10297D01*
X34188Y10275D01*
X34196Y10254D01*
X34207Y10234D01*
X34221Y10216D01*
X34238Y10200D01*
X34258Y10185D01*
X34282Y10173D01*
X34251Y10163D01*
X34224Y10150D01*
X34201Y10133D01*
X34182Y10111D01*
X34166Y10086D01*
X34155Y10058D01*
X34148Y10028D01*
X34146Y9994D01*
X34150Y9948D01*
X34163Y9906D01*
X34185Y9867D01*
X34215Y9832D01*
X34252Y9803D01*
X34294Y9783D01*
X34340Y9770D01*
X34391Y9766D01*
X34437Y9770D01*
X34479Y9780D01*
X34516Y9798D01*
X34550Y9823D01*
X34578Y9854D01*
X34600Y9889D01*
X34614Y9928D01*
X34622Y9971D01*
X34622Y9971D01*
X34851Y7239D02*
X34941Y7239D01*
X34941Y7808D01*
X34958Y7793D01*
X34978Y7777D01*
X35000Y7762D01*
X35025Y7747D01*
X35051Y7732D01*
X35075Y7720D01*
X35098Y7709D01*
X35119Y7700D01*
X35119Y7787D01*
X35083Y7805D01*
X35049Y7826D01*
X35017Y7848D01*
X34988Y7872D01*
X34962Y7897D01*
X34940Y7921D01*
X34923Y7945D01*
X34909Y7969D01*
X34851Y7969D01*
X34851Y7239D01*
X34851Y7239D01*
X34336Y7239D02*
X34336Y7413D01*
X34652Y7413D01*
X34652Y7495D01*
X34393Y7863D01*
X34336Y7823D01*
X34564Y7495D01*
X34336Y7495D01*
X34336Y7495D01*
X34336Y7823D01*
X34393Y7863D01*
X34320Y7966D01*
X34247Y7966D01*
X34247Y7495D01*
X34149Y7495D01*
X34149Y7413D01*
X34247Y7413D01*
X34247Y7239D01*
X34336Y7239D01*
X34336Y7239D01*
X34851Y4699D02*
X34941Y4699D01*
X34941Y5268D01*
X34958Y5253D01*
X34978Y5237D01*
X35000Y5222D01*
X35025Y5207D01*
X35051Y5192D01*
X35075Y5180D01*
X35098Y5169D01*
X35119Y5160D01*
X35119Y5247D01*
X35083Y5265D01*
X35049Y5286D01*
X35017Y5308D01*
X34988Y5332D01*
X34962Y5357D01*
X34940Y5381D01*
X34923Y5405D01*
X34909Y5429D01*
X34851Y5429D01*
X34851Y4699D01*
X34851Y4699D01*
X34623Y4889D02*
X34529Y4897D01*
X34522Y4865D01*
X34512Y4837D01*
X34498Y4814D01*
X34480Y4794D01*
X34460Y4779D01*
X34439Y4769D01*
X34415Y4762D01*
X34389Y4760D01*
X34358Y4763D01*
X34329Y4772D01*
X34303Y4787D01*
X34280Y4809D01*
X34260Y4835D01*
X34246Y4865D01*
X34238Y4899D01*
X34235Y4938D01*
X34238Y4974D01*
X34246Y5006D01*
X34259Y5034D01*
X34278Y5058D01*
X34301Y5077D01*
X34328Y5091D01*
X34357Y5100D01*
X34390Y5102D01*
X34411Y5101D01*
X34431Y5097D01*
X34450Y5091D01*
X34468Y5083D01*
X34485Y5072D01*
X34499Y5060D01*
X34512Y5047D01*
X34523Y5032D01*
X34607Y5043D01*
X34536Y5416D01*
X34175Y5416D01*
X34175Y5331D01*
X34465Y5331D01*
X34504Y5136D01*
X34471Y5156D01*
X34437Y5170D01*
X34402Y5178D01*
X34367Y5181D01*
X34321Y5177D01*
X34279Y5165D01*
X34240Y5144D01*
X34206Y5115D01*
X34177Y5080D01*
X34157Y5040D01*
X34144Y4995D01*
X34140Y4946D01*
X34144Y4898D01*
X34155Y4854D01*
X34173Y4813D01*
X34198Y4775D01*
X34236Y4736D01*
X34281Y4709D01*
X34332Y4692D01*
X34389Y4687D01*
X34436Y4690D01*
X34479Y4700D01*
X34517Y4718D01*
X34551Y4742D01*
X34579Y4772D01*
X34600Y4807D01*
X34615Y4846D01*
X34623Y4889D01*
X34623Y4889D01*
X34851Y12319D02*
X34941Y12319D01*
X34941Y12888D01*
X34958Y12873D01*
X34978Y12857D01*
X35000Y12842D01*
X35025Y12827D01*
X35051Y12812D01*
X35075Y12800D01*
X35098Y12789D01*
X35119Y12780D01*
X35119Y12867D01*
X35083Y12885D01*
X35049Y12906D01*
X35017Y12928D01*
X34988Y12952D01*
X34962Y12977D01*
X34940Y13001D01*
X34923Y13025D01*
X34909Y13049D01*
X34851Y13049D01*
X34851Y12319D01*
X34851Y12319D01*
X34153Y12405D02*
X34153Y12319D01*
X34634Y12319D01*
X34634Y12335D01*
X34632Y12351D01*
X34628Y12366D01*
X34624Y12381D01*
X34613Y12405D01*
X34600Y12430D01*
X34584Y12454D01*
X34565Y12478D01*
X34542Y12502D01*
X34515Y12529D01*
X34484Y12558D01*
X34448Y12588D01*
X34393Y12634D01*
X34349Y12675D01*
X34313Y12711D01*
X34288Y12742D01*
X34269Y12770D01*
X34256Y12797D01*
X34249Y12824D01*
X34246Y12849D01*
X34248Y12875D01*
X34256Y12898D01*
X34267Y12920D01*
X34284Y12939D01*
X34304Y12955D01*
X34328Y12966D01*
X34354Y12973D01*
X34383Y12975D01*
X34414Y12973D01*
X34441Y12966D01*
X34465Y12954D01*
X34486Y12937D01*
X34503Y12915D01*
X34515Y12890D01*
X34523Y12862D01*
X34525Y12829D01*
X34617Y12839D01*
X34609Y12887D01*
X34595Y12929D01*
X34574Y12965D01*
X34546Y12995D01*
X34513Y13019D01*
X34474Y13036D01*
X34430Y13046D01*
X34381Y13049D01*
X34331Y13046D01*
X34287Y13035D01*
X34249Y13017D01*
X34215Y12991D01*
X34189Y12960D01*
X34170Y12926D01*
X34158Y12889D01*
X34154Y12847D01*
X34155Y12826D01*
X34159Y12804D01*
X34164Y12783D01*
X34172Y12762D01*
X34183Y12740D01*
X34196Y12718D01*
X34212Y12696D01*
X34231Y12673D01*
X34256Y12647D01*
X34287Y12617D01*
X34324Y12583D01*
X34369Y12545D01*
X34406Y12514D01*
X34435Y12488D01*
X34457Y12468D01*
X34472Y12453D01*
X34483Y12441D01*
X34493Y12429D01*
X34502Y12417D01*
X34510Y12405D01*
X34153Y12405D01*
X34153Y12405D01*
X21211Y40259D02*
X21301Y40259D01*
X21301Y40828D01*
X21318Y40813D01*
X21338Y40797D01*
X21360Y40782D01*
X21385Y40767D01*
X21411Y40752D01*
X21435Y40740D01*
X21458Y40729D01*
X21479Y40720D01*
X21479Y40807D01*
X21443Y40825D01*
X21409Y40846D01*
X21378Y40868D01*
X21348Y40892D01*
X21322Y40917D01*
X21301Y40941D01*
X21283Y40965D01*
X21269Y40989D01*
X21211Y40989D01*
X21211Y40259D01*
X21211Y40259D01*
X21079Y37805D02*
X21079Y37719D01*
X21559Y37719D01*
X21559Y37735D01*
X21557Y37751D01*
X21554Y37766D01*
X21549Y37781D01*
X21538Y37805D01*
X21525Y37830D01*
X21509Y37854D01*
X21490Y37878D01*
X21468Y37902D01*
X21441Y37929D01*
X21409Y37958D01*
X21373Y37988D01*
X21319Y38034D01*
X21274Y38075D01*
X21239Y38111D01*
X21213Y38142D01*
X21195Y38170D01*
X21182Y38197D01*
X21174Y38224D01*
X21171Y38249D01*
X21174Y38275D01*
X21181Y38298D01*
X21193Y38320D01*
X21209Y38339D01*
X21230Y38355D01*
X21253Y38366D01*
X21279Y38373D01*
X21308Y38375D01*
X21339Y38373D01*
X21366Y38366D01*
X21390Y38354D01*
X21411Y38337D01*
X21428Y38315D01*
X21441Y38290D01*
X21448Y38262D01*
X21451Y38229D01*
X21542Y38239D01*
X21534Y38287D01*
X21520Y38329D01*
X21499Y38365D01*
X21471Y38395D01*
X21438Y38419D01*
X21399Y38436D01*
X21355Y38446D01*
X21306Y38449D01*
X21257Y38446D01*
X21212Y38435D01*
X21174Y38417D01*
X21141Y38391D01*
X21114Y38360D01*
X21095Y38326D01*
X21083Y38289D01*
X21080Y38247D01*
X21081Y38226D01*
X21084Y38204D01*
X21090Y38183D01*
X21097Y38162D01*
X21108Y38140D01*
X21121Y38118D01*
X21137Y38096D01*
X21157Y38073D01*
X21181Y38047D01*
X21212Y38017D01*
X21250Y37983D01*
X21294Y37945D01*
X21331Y37914D01*
X21360Y37888D01*
X21383Y37868D01*
X21398Y37853D01*
X21408Y37841D01*
X21418Y37829D01*
X21427Y37817D01*
X21435Y37805D01*
X21079Y37805D01*
X21079Y37805D01*
X21262Y32639D02*
X21262Y32813D01*
X21577Y32813D01*
X21577Y32895D01*
X21318Y33263D01*
X21262Y33223D01*
X21489Y32895D01*
X21262Y32895D01*
X21262Y32895D01*
X21262Y33223D01*
X21318Y33263D01*
X21245Y33366D01*
X21172Y33366D01*
X21172Y32895D01*
X21074Y32895D01*
X21074Y32813D01*
X21172Y32813D01*
X21172Y32639D01*
X21262Y32639D01*
X21262Y32639D01*
X21548Y30290D02*
X21454Y30297D01*
X21447Y30265D01*
X21437Y30237D01*
X21423Y30214D01*
X21406Y30194D01*
X21386Y30179D01*
X21364Y30169D01*
X21340Y30162D01*
X21314Y30160D01*
X21283Y30163D01*
X21255Y30172D01*
X21229Y30187D01*
X21205Y30209D01*
X21185Y30235D01*
X21172Y30265D01*
X21163Y30299D01*
X21160Y30338D01*
X21163Y30374D01*
X21171Y30406D01*
X21185Y30434D01*
X21203Y30458D01*
X21226Y30477D01*
X21253Y30491D01*
X21283Y30500D01*
X21316Y30502D01*
X21337Y30501D01*
X21357Y30497D01*
X21376Y30491D01*
X21394Y30483D01*
X21410Y30472D01*
X21425Y30460D01*
X21437Y30447D01*
X21448Y30432D01*
X21532Y30443D01*
X21462Y30816D01*
X21100Y30816D01*
X21100Y30731D01*
X21390Y30731D01*
X21429Y30536D01*
X21396Y30556D01*
X21362Y30570D01*
X21327Y30578D01*
X21292Y30581D01*
X21246Y30577D01*
X21204Y30565D01*
X21166Y30544D01*
X21131Y30515D01*
X21102Y30480D01*
X21082Y30440D01*
X21070Y30395D01*
X21066Y30346D01*
X21069Y30298D01*
X21080Y30254D01*
X21098Y30213D01*
X21123Y30175D01*
X21161Y30136D01*
X21206Y30109D01*
X21257Y30092D01*
X21314Y30087D01*
X21362Y30090D01*
X21404Y30100D01*
X21442Y30118D01*
X21476Y30142D01*
X21504Y30172D01*
X21525Y30207D01*
X21540Y30246D01*
X21548Y30290D01*
X21548Y30290D01*
X21084Y28108D02*
X21173Y28101D01*
X21180Y28126D01*
X21188Y28147D01*
X21197Y28164D01*
X21207Y28178D01*
X21226Y28194D01*
X21247Y28206D01*
X21271Y28213D01*
X21296Y28216D01*
X21317Y28214D01*
X21336Y28210D01*
X21354Y28202D01*
X21371Y28192D01*
X21391Y28175D01*
X21409Y28154D01*
X21424Y28130D01*
X21438Y28102D01*
X21448Y28070D01*
X21456Y28031D01*
X21461Y27985D01*
X21463Y27934D01*
X21416Y27897D01*
X21425Y27885D01*
X21439Y27858D01*
X21446Y27828D01*
X21449Y27795D01*
X21449Y27795D01*
X21448Y27772D01*
X21444Y27749D01*
X21438Y27728D01*
X21430Y27706D01*
X21419Y27687D01*
X21406Y27669D01*
X21391Y27654D01*
X21375Y27642D01*
X21357Y27632D01*
X21339Y27626D01*
X21320Y27621D01*
X21301Y27620D01*
X21273Y27623D01*
X21248Y27631D01*
X21225Y27646D01*
X21204Y27666D01*
X21186Y27691D01*
X21173Y27719D01*
X21165Y27753D01*
X21163Y27790D01*
X21165Y27825D01*
X21173Y27857D01*
X21185Y27885D01*
X21203Y27908D01*
X21224Y27927D01*
X21248Y27941D01*
X21275Y27949D01*
X21304Y27952D01*
X21333Y27949D01*
X21360Y27941D01*
X21385Y27927D01*
X21407Y27908D01*
X21416Y27897D01*
X21463Y27934D01*
X21446Y27957D01*
X21427Y27977D01*
X21407Y27993D01*
X21384Y28007D01*
X21361Y28017D01*
X21336Y28025D01*
X21312Y28029D01*
X21286Y28031D01*
X21243Y28027D01*
X21204Y28014D01*
X21167Y27994D01*
X21134Y27965D01*
X21107Y27930D01*
X21087Y27890D01*
X21076Y27845D01*
X21072Y27795D01*
X21073Y27762D01*
X21079Y27729D01*
X21088Y27698D01*
X21101Y27668D01*
X21117Y27640D01*
X21136Y27616D01*
X21158Y27595D01*
X21182Y27578D01*
X21209Y27564D01*
X21237Y27554D01*
X21267Y27549D01*
X21299Y27547D01*
X21353Y27552D01*
X21401Y27567D01*
X21444Y27593D01*
X21481Y27629D01*
X21512Y27676D01*
X21534Y27737D01*
X21547Y27812D01*
X21552Y27899D01*
X21547Y27998D01*
X21532Y28081D01*
X21508Y28151D01*
X21474Y28206D01*
X21437Y28242D01*
X21394Y28268D01*
X21345Y28284D01*
X21291Y28289D01*
X21250Y28286D01*
X21213Y28277D01*
X21180Y28262D01*
X21150Y28241D01*
X21126Y28215D01*
X21106Y28184D01*
X21093Y28148D01*
X21084Y28108D01*
X21084Y28108D01*
X21542Y25651D02*
X21542Y25737D01*
X21071Y25737D01*
X21071Y25667D01*
X21106Y25627D01*
X21140Y25581D01*
X21175Y25529D01*
X21209Y25471D01*
X21241Y25409D01*
X21269Y25347D01*
X21294Y25283D01*
X21314Y25219D01*
X21326Y25172D01*
X21336Y25123D01*
X21343Y25072D01*
X21348Y25019D01*
X21440Y25019D01*
X21438Y25064D01*
X21431Y25114D01*
X21421Y25168D01*
X21406Y25226D01*
X21389Y25287D01*
X21367Y25346D01*
X21342Y25404D01*
X21314Y25461D01*
X21283Y25515D01*
X21252Y25565D01*
X21219Y25610D01*
X21186Y25651D01*
X21542Y25651D01*
X21542Y25651D01*
X21534Y20107D02*
X21449Y20115D01*
X21442Y20087D01*
X21433Y20063D01*
X21421Y20043D01*
X21407Y20027D01*
X21390Y20015D01*
X21372Y20007D01*
X21351Y20002D01*
X21328Y20000D01*
X21308Y20001D01*
X21289Y20005D01*
X21272Y20011D01*
X21256Y20019D01*
X21241Y20029D01*
X21228Y20041D01*
X21216Y20054D01*
X21205Y20069D01*
X21196Y20086D01*
X21187Y20106D01*
X21179Y20129D01*
X21172Y20154D01*
X21166Y20181D01*
X21162Y20208D01*
X21159Y20236D01*
X21158Y20263D01*
X21158Y20267D01*
X21159Y20271D01*
X21159Y20276D01*
X21159Y20281D01*
X21204Y20314D01*
X21191Y20332D01*
X21179Y20360D01*
X21171Y20392D01*
X21169Y20428D01*
X21169Y20428D01*
X21171Y20465D01*
X21179Y20497D01*
X21192Y20526D01*
X21210Y20550D01*
X21231Y20570D01*
X21255Y20584D01*
X21280Y20593D01*
X21308Y20595D01*
X21337Y20592D01*
X21364Y20583D01*
X21389Y20568D01*
X21412Y20547D01*
X21431Y20521D01*
X21445Y20491D01*
X21453Y20458D01*
X21456Y20421D01*
X21453Y20388D01*
X21446Y20358D01*
X21432Y20331D01*
X21414Y20308D01*
X21392Y20289D01*
X21367Y20275D01*
X21340Y20267D01*
X21311Y20264D01*
X21281Y20267D01*
X21254Y20275D01*
X21230Y20289D01*
X21209Y20308D01*
X21204Y20314D01*
X21159Y20281D01*
X21174Y20261D01*
X21191Y20243D01*
X21210Y20226D01*
X21232Y20212D01*
X21256Y20200D01*
X21280Y20192D01*
X21306Y20187D01*
X21333Y20186D01*
X21376Y20190D01*
X21416Y20202D01*
X21452Y20222D01*
X21485Y20251D01*
X21513Y20286D01*
X21532Y20327D01*
X21544Y20373D01*
X21548Y20424D01*
X21544Y20476D01*
X21532Y20524D01*
X21511Y20565D01*
X21483Y20602D01*
X21448Y20631D01*
X21409Y20652D01*
X21366Y20665D01*
X21319Y20669D01*
X21284Y20667D01*
X21251Y20660D01*
X21220Y20648D01*
X21189Y20631D01*
X21162Y20610D01*
X21138Y20585D01*
X21117Y20555D01*
X21100Y20522D01*
X21087Y20483D01*
X21077Y20436D01*
X21072Y20381D01*
X21070Y20318D01*
X21071Y20251D01*
X21077Y20192D01*
X21087Y20140D01*
X21100Y20096D01*
X21117Y20057D01*
X21138Y20023D01*
X21162Y19994D01*
X21190Y19970D01*
X21221Y19951D01*
X21255Y19937D01*
X21291Y19929D01*
X21330Y19927D01*
X21371Y19930D01*
X21408Y19938D01*
X21440Y19953D01*
X21469Y19974D01*
X21494Y20000D01*
X21513Y20031D01*
X21526Y20067D01*
X21534Y20107D01*
X21534Y20107D01*
X21542Y17399D02*
X21631Y17399D01*
X21631Y17968D01*
X21648Y17953D01*
X21668Y17937D01*
X21691Y17922D01*
X21716Y17907D01*
X21741Y17892D01*
X21765Y17880D01*
X21788Y17869D01*
X21810Y17860D01*
X21810Y17947D01*
X21773Y17965D01*
X21739Y17986D01*
X21708Y18008D01*
X21679Y18032D01*
X21653Y18057D01*
X21631Y18081D01*
X21613Y18105D01*
X21599Y18129D01*
X21542Y18129D01*
X21542Y17399D01*
X21542Y17399D01*
X21313Y17758D02*
X21311Y17819D01*
X21306Y17874D01*
X21298Y17923D01*
X21286Y17965D01*
X21272Y18002D01*
X21253Y18035D01*
X21232Y18063D01*
X21208Y18087D01*
X21180Y18105D01*
X21148Y18119D01*
X21114Y18127D01*
X21076Y18129D01*
X21047Y18128D01*
X21021Y18123D01*
X20996Y18116D01*
X20973Y18106D01*
X20952Y18093D01*
X20933Y18077D01*
X20916Y18059D01*
X20900Y18038D01*
X20887Y18014D01*
X20875Y17988D01*
X20864Y17960D01*
X20855Y17930D01*
X20848Y17895D01*
X20843Y17855D01*
X20840Y17809D01*
X20839Y17758D01*
X20840Y17697D01*
X20845Y17642D01*
X20853Y17593D01*
X20865Y17551D01*
X20880Y17514D01*
X20898Y17481D01*
X20919Y17453D01*
X20944Y17430D01*
X20972Y17411D01*
X21003Y17397D01*
X21038Y17389D01*
X21076Y17387D01*
X21083Y17387D01*
X21076Y17460D01*
X21046Y17464D01*
X21019Y17475D01*
X20995Y17494D01*
X20972Y17520D01*
X20954Y17557D01*
X20941Y17609D01*
X20933Y17676D01*
X20930Y17758D01*
X20933Y17840D01*
X20941Y17907D01*
X20954Y17959D01*
X20972Y17996D01*
X20995Y18022D01*
X21019Y18041D01*
X21047Y18052D01*
X21077Y18055D01*
X21106Y18052D01*
X21132Y18042D01*
X21155Y18026D01*
X21175Y18003D01*
X21195Y17963D01*
X21210Y17909D01*
X21218Y17840D01*
X21221Y17758D01*
X21221Y17758D01*
X21219Y17676D01*
X21211Y17609D01*
X21198Y17556D01*
X21179Y17519D01*
X21157Y17493D01*
X21132Y17475D01*
X21105Y17464D01*
X21076Y17460D01*
X21083Y17387D01*
X21126Y17391D01*
X21170Y17405D01*
X21208Y17429D01*
X21241Y17462D01*
X21273Y17515D01*
X21295Y17581D01*
X21308Y17662D01*
X21313Y17758D01*
X21313Y17758D01*
X21542Y14859D02*
X21631Y14859D01*
X21631Y15428D01*
X21648Y15413D01*
X21668Y15397D01*
X21691Y15382D01*
X21716Y15367D01*
X21741Y15352D01*
X21765Y15340D01*
X21788Y15329D01*
X21810Y15320D01*
X21810Y15407D01*
X21773Y15425D01*
X21739Y15446D01*
X21708Y15468D01*
X21679Y15492D01*
X21653Y15517D01*
X21631Y15541D01*
X21613Y15565D01*
X21599Y15589D01*
X21542Y15589D01*
X21542Y14859D01*
X21542Y14859D01*
X21052Y14859D02*
X21141Y14859D01*
X21141Y15428D01*
X21159Y15413D01*
X21179Y15397D01*
X21201Y15382D01*
X21226Y15367D01*
X21251Y15352D01*
X21276Y15340D01*
X21298Y15329D01*
X21320Y15320D01*
X21320Y15407D01*
X21284Y15425D01*
X21250Y15446D01*
X21218Y15468D01*
X21189Y15492D01*
X21163Y15517D01*
X21141Y15541D01*
X21123Y15565D01*
X21110Y15589D01*
X21052Y15589D01*
X21052Y14859D01*
X21052Y14859D01*
X21542Y12319D02*
X21631Y12319D01*
X21631Y12888D01*
X21648Y12873D01*
X21668Y12857D01*
X21691Y12842D01*
X21716Y12827D01*
X21741Y12812D01*
X21765Y12800D01*
X21788Y12789D01*
X21810Y12780D01*
X21810Y12867D01*
X21773Y12885D01*
X21739Y12906D01*
X21708Y12928D01*
X21679Y12952D01*
X21653Y12977D01*
X21631Y13001D01*
X21613Y13025D01*
X21599Y13049D01*
X21542Y13049D01*
X21542Y12319D01*
X21542Y12319D01*
X20844Y12405D02*
X20844Y12319D01*
X21324Y12319D01*
X21324Y12335D01*
X21322Y12351D01*
X21319Y12366D01*
X21314Y12381D01*
X21303Y12405D01*
X21290Y12430D01*
X21274Y12454D01*
X21255Y12478D01*
X21233Y12502D01*
X21206Y12529D01*
X21174Y12558D01*
X21138Y12588D01*
X21084Y12634D01*
X21039Y12675D01*
X21004Y12711D01*
X20978Y12742D01*
X20960Y12770D01*
X20947Y12797D01*
X20939Y12824D01*
X20936Y12849D01*
X20939Y12875D01*
X20946Y12898D01*
X20958Y12920D01*
X20974Y12939D01*
X20995Y12955D01*
X21018Y12966D01*
X21044Y12973D01*
X21073Y12975D01*
X21104Y12973D01*
X21131Y12966D01*
X21156Y12954D01*
X21177Y12937D01*
X21194Y12915D01*
X21206Y12890D01*
X21213Y12862D01*
X21216Y12829D01*
X21308Y12839D01*
X21300Y12887D01*
X21285Y12929D01*
X21264Y12965D01*
X21237Y12995D01*
X21203Y13019D01*
X21165Y13036D01*
X21121Y13046D01*
X21071Y13049D01*
X21022Y13046D01*
X20978Y13035D01*
X20939Y13017D01*
X20906Y12991D01*
X20879Y12960D01*
X20860Y12926D01*
X20848Y12889D01*
X20845Y12847D01*
X20846Y12826D01*
X20849Y12804D01*
X20855Y12783D01*
X20863Y12762D01*
X20873Y12740D01*
X20886Y12718D01*
X20903Y12696D01*
X20922Y12673D01*
X20946Y12647D01*
X20977Y12617D01*
X21015Y12583D01*
X21059Y12545D01*
X21096Y12514D01*
X21125Y12488D01*
X21148Y12468D01*
X21163Y12453D01*
X21174Y12441D01*
X21183Y12429D01*
X21192Y12417D01*
X21200Y12405D01*
X20844Y12405D01*
X20844Y12405D01*
X21542Y7239D02*
X21631Y7239D01*
X21631Y7808D01*
X21648Y7793D01*
X21668Y7777D01*
X21691Y7762D01*
X21716Y7747D01*
X21741Y7732D01*
X21765Y7720D01*
X21788Y7709D01*
X21810Y7700D01*
X21810Y7787D01*
X21773Y7805D01*
X21739Y7826D01*
X21708Y7848D01*
X21679Y7872D01*
X21653Y7897D01*
X21631Y7921D01*
X21613Y7945D01*
X21599Y7969D01*
X21542Y7969D01*
X21542Y7239D01*
X21542Y7239D01*
X21027Y7239D02*
X21027Y7413D01*
X21342Y7413D01*
X21342Y7495D01*
X21083Y7863D01*
X21027Y7823D01*
X21254Y7495D01*
X21027Y7495D01*
X21027Y7495D01*
X21027Y7823D01*
X21083Y7863D01*
X21010Y7966D01*
X20937Y7966D01*
X20937Y7495D01*
X20839Y7495D01*
X20839Y7413D01*
X20937Y7413D01*
X20937Y7239D01*
X21027Y7239D01*
X21027Y7239D01*
X21542Y4699D02*
X21631Y4699D01*
X21631Y5268D01*
X21648Y5253D01*
X21668Y5237D01*
X21691Y5222D01*
X21716Y5207D01*
X21741Y5192D01*
X21765Y5180D01*
X21788Y5169D01*
X21810Y5160D01*
X21810Y5247D01*
X21773Y5265D01*
X21739Y5286D01*
X21708Y5308D01*
X21679Y5332D01*
X21653Y5357D01*
X21631Y5381D01*
X21613Y5405D01*
X21599Y5429D01*
X21542Y5429D01*
X21542Y4699D01*
X21542Y4699D01*
X21313Y4889D02*
X21219Y4897D01*
X21212Y4865D01*
X21202Y4837D01*
X21188Y4814D01*
X21171Y4794D01*
X21151Y4779D01*
X21129Y4769D01*
X21105Y4762D01*
X21079Y4760D01*
X21048Y4763D01*
X21020Y4772D01*
X20994Y4787D01*
X20970Y4809D01*
X20951Y4835D01*
X20937Y4865D01*
X20928Y4899D01*
X20926Y4938D01*
X20928Y4974D01*
X20936Y5006D01*
X20950Y5034D01*
X20968Y5058D01*
X20992Y5077D01*
X21018Y5091D01*
X21048Y5100D01*
X21081Y5102D01*
X21102Y5101D01*
X21122Y5097D01*
X21141Y5091D01*
X21159Y5083D01*
X21175Y5072D01*
X21190Y5060D01*
X21202Y5047D01*
X21213Y5032D01*
X21297Y5043D01*
X21227Y5416D01*
X20865Y5416D01*
X20865Y5331D01*
X21155Y5331D01*
X21194Y5136D01*
X21161Y5156D01*
X21127Y5170D01*
X21093Y5178D01*
X21057Y5181D01*
X21011Y5177D01*
X20969Y5165D01*
X20931Y5144D01*
X20896Y5115D01*
X20868Y5080D01*
X20847Y5040D01*
X20835Y4995D01*
X20831Y4946D01*
X20834Y4898D01*
X20845Y4854D01*
X20863Y4813D01*
X20888Y4775D01*
X20926Y4736D01*
X20971Y4709D01*
X21022Y4692D01*
X21079Y4687D01*
X21127Y4690D01*
X21169Y4700D01*
X21208Y4718D01*
X21241Y4742D01*
X21269Y4772D01*
X21291Y4807D01*
X21305Y4846D01*
X21313Y4889D01*
X21313Y4889D01*
X23158Y3175D02*
X23158Y3902D01*
X22667Y3902D01*
X22667Y3816D01*
X23061Y3816D01*
X23061Y3591D01*
X22720Y3591D01*
X22720Y3505D01*
X23061Y3505D01*
X23061Y3175D01*
X23158Y3175D01*
X23158Y3175D01*
X25235Y3460D02*
X25235Y3546D01*
X24927Y3546D01*
X24927Y3276D01*
X24963Y3250D01*
X24999Y3227D01*
X25036Y3207D01*
X25074Y3191D01*
X25112Y3179D01*
X25150Y3170D01*
X25189Y3164D01*
X25228Y3163D01*
X25281Y3165D01*
X25331Y3174D01*
X25378Y3188D01*
X25423Y3208D01*
X25464Y3234D01*
X25500Y3265D01*
X25530Y3300D01*
X25555Y3341D01*
X25575Y3386D01*
X25589Y3433D01*
X25597Y3483D01*
X25600Y3535D01*
X25597Y3587D01*
X25589Y3638D01*
X25575Y3686D01*
X25556Y3733D01*
X25531Y3776D01*
X25501Y3814D01*
X25467Y3845D01*
X25428Y3870D01*
X25385Y3890D01*
X25338Y3904D01*
X25289Y3912D01*
X25236Y3915D01*
X25197Y3913D01*
X25161Y3908D01*
X25126Y3900D01*
X25093Y3889D01*
X25063Y3875D01*
X25036Y3859D01*
X25013Y3840D01*
X24993Y3818D01*
X24976Y3793D01*
X24961Y3765D01*
X24949Y3734D01*
X24938Y3699D01*
X25025Y3675D01*
X25034Y3701D01*
X25043Y3725D01*
X25054Y3745D01*
X25066Y3762D01*
X25079Y3777D01*
X25095Y3791D01*
X25114Y3803D01*
X25135Y3813D01*
X25158Y3822D01*
X25183Y3828D01*
X25208Y3831D01*
X25235Y3832D01*
X25267Y3831D01*
X25297Y3827D01*
X25324Y3821D01*
X25349Y3812D01*
X25372Y3801D01*
X25393Y3789D01*
X25411Y3775D01*
X25427Y3759D01*
X25441Y3743D01*
X25453Y3725D01*
X25464Y3707D01*
X25473Y3687D01*
X25485Y3653D01*
X25494Y3617D01*
X25499Y3580D01*
X25501Y3541D01*
X25499Y3494D01*
X25492Y3452D01*
X25482Y3413D01*
X25467Y3378D01*
X25449Y3348D01*
X25426Y3321D01*
X25400Y3299D01*
X25370Y3281D01*
X25337Y3267D01*
X25304Y3257D01*
X25269Y3251D01*
X25234Y3249D01*
X25203Y3251D01*
X25172Y3255D01*
X25142Y3263D01*
X25112Y3273D01*
X25084Y3286D01*
X25059Y3298D01*
X25039Y3311D01*
X25021Y3325D01*
X25021Y3460D01*
X25235Y3460D01*
X25235Y3460D01*
X28240Y3175D02*
X28240Y3902D01*
X28143Y3902D01*
X28143Y3604D01*
X27765Y3604D01*
X27765Y3902D01*
X27669Y3902D01*
X27669Y3175D01*
X27765Y3175D01*
X27765Y3518D01*
X28143Y3518D01*
X28143Y3175D01*
X28240Y3175D01*
X28240Y3175D01*
X30766Y3175D02*
X30766Y3902D01*
X30670Y3902D01*
X30670Y3175D01*
X30766Y3175D01*
X30766Y3175D01*
X33372Y3381D02*
X33285Y3393D01*
X33282Y3355D01*
X33275Y3323D01*
X33266Y3298D01*
X33254Y3279D01*
X33238Y3266D01*
X33221Y3256D01*
X33200Y3250D01*
X33177Y3248D01*
X33159Y3249D01*
X33143Y3253D01*
X33128Y3258D01*
X33114Y3265D01*
X33102Y3274D01*
X33092Y3285D01*
X33084Y3297D01*
X33078Y3310D01*
X33074Y3327D01*
X33071Y3347D01*
X33069Y3372D01*
X33068Y3401D01*
X33068Y3902D01*
X32972Y3902D01*
X32972Y3407D01*
X32973Y3364D01*
X32977Y3326D01*
X32984Y3293D01*
X32994Y3265D01*
X33007Y3242D01*
X33022Y3221D01*
X33042Y3204D01*
X33064Y3189D01*
X33089Y3177D01*
X33116Y3169D01*
X33145Y3164D01*
X33176Y3163D01*
X33221Y3166D01*
X33261Y3176D01*
X33295Y3194D01*
X33323Y3218D01*
X33345Y3249D01*
X33361Y3286D01*
X33369Y3330D01*
X33372Y3381D01*
X33372Y3381D01*
G37*
%LNbottom silkscreen component dc3abb3eeb0ae620*%
G36*
X5462Y41783D02*
X5202Y42460D01*
X5134Y42434D01*
X5141Y42399D01*
X5150Y42364D01*
X5161Y42330D01*
X5173Y42295D01*
X5253Y42082D01*
X5253Y42082D01*
X5006Y42082D01*
X5082Y42283D01*
X5098Y42327D01*
X5112Y42367D01*
X5124Y42402D01*
X5134Y42434D01*
X5202Y42460D01*
X5183Y42510D01*
X5080Y42510D01*
X4782Y41783D01*
X4891Y41783D01*
X4976Y42003D01*
X5280Y42003D01*
X5360Y41783D01*
X5462Y41783D01*
X5462Y41783D01*
X7927Y41783D02*
X7927Y42510D01*
X7654Y42510D01*
X7614Y42509D01*
X7579Y42505D01*
X7547Y42498D01*
X7520Y42488D01*
X7496Y42476D01*
X7475Y42460D01*
X7457Y42442D01*
X7441Y42420D01*
X7429Y42397D01*
X7420Y42373D01*
X7414Y42349D01*
X7413Y42324D01*
X7414Y42301D01*
X7419Y42279D01*
X7427Y42257D01*
X7438Y42236D01*
X7452Y42217D01*
X7470Y42199D01*
X7490Y42184D01*
X7514Y42170D01*
X7543Y42101D01*
X7556Y42107D01*
X7576Y42112D01*
X7601Y42116D01*
X7629Y42118D01*
X7662Y42119D01*
X7830Y42119D01*
X7830Y41869D01*
X7830Y41869D01*
X7649Y41869D01*
X7628Y41869D01*
X7610Y41870D01*
X7595Y41871D01*
X7584Y41872D01*
X7568Y41876D01*
X7553Y41880D01*
X7540Y41886D01*
X7528Y41892D01*
X7518Y41900D01*
X7508Y41909D01*
X7499Y41920D01*
X7492Y41933D01*
X7485Y41946D01*
X7481Y41961D01*
X7478Y41977D01*
X7477Y41994D01*
X7478Y42014D01*
X7482Y42032D01*
X7489Y42049D01*
X7498Y42065D01*
X7509Y42078D01*
X7523Y42090D01*
X7538Y42100D01*
X7543Y42101D01*
X7514Y42170D01*
X7549Y42228D01*
X7536Y42238D01*
X7526Y42249D01*
X7518Y42263D01*
X7512Y42278D01*
X7509Y42295D01*
X7507Y42313D01*
X7508Y42330D01*
X7512Y42347D01*
X7517Y42362D01*
X7525Y42377D01*
X7534Y42389D01*
X7546Y42400D01*
X7559Y42408D01*
X7574Y42414D01*
X7593Y42419D01*
X7618Y42422D01*
X7649Y42424D01*
X7685Y42424D01*
X7830Y42424D01*
X7830Y42205D01*
X7830Y42205D01*
X7673Y42205D01*
X7643Y42205D01*
X7618Y42207D01*
X7597Y42209D01*
X7581Y42213D01*
X7564Y42219D01*
X7549Y42228D01*
X7514Y42170D01*
X7483Y42159D01*
X7456Y42144D01*
X7433Y42126D01*
X7413Y42104D01*
X7397Y42080D01*
X7386Y42053D01*
X7380Y42025D01*
X7377Y41994D01*
X7379Y41969D01*
X7383Y41945D01*
X7390Y41921D01*
X7399Y41899D01*
X7410Y41878D01*
X7423Y41860D01*
X7437Y41844D01*
X7452Y41831D01*
X7469Y41820D01*
X7488Y41810D01*
X7509Y41802D01*
X7532Y41795D01*
X7557Y41790D01*
X7585Y41786D01*
X7616Y41784D01*
X7649Y41783D01*
X7927Y41783D01*
X7927Y41783D01*
X9944Y42038D02*
X9847Y42014D01*
X9866Y41958D01*
X9890Y41909D01*
X9920Y41868D01*
X9956Y41833D01*
X9998Y41806D01*
X10044Y41786D01*
X10094Y41774D01*
X10149Y41771D01*
X10205Y41774D01*
X10255Y41783D01*
X10300Y41798D01*
X10340Y41818D01*
X10374Y41845D01*
X10405Y41877D01*
X10431Y41914D01*
X10452Y41957D01*
X10469Y42003D01*
X10481Y42051D01*
X10488Y42101D01*
X10490Y42152D01*
X10488Y42207D01*
X10480Y42258D01*
X10466Y42306D01*
X10447Y42350D01*
X10423Y42390D01*
X10394Y42425D01*
X10361Y42454D01*
X10323Y42479D01*
X10282Y42498D01*
X10239Y42512D01*
X10194Y42520D01*
X10147Y42523D01*
X10095Y42519D01*
X10047Y42509D01*
X10003Y42491D01*
X9964Y42467D01*
X9929Y42437D01*
X9900Y42400D01*
X9877Y42358D01*
X9860Y42311D01*
X9955Y42289D01*
X9969Y42326D01*
X9986Y42357D01*
X10005Y42383D01*
X10028Y42404D01*
X10054Y42420D01*
X10082Y42431D01*
X10114Y42438D01*
X10149Y42440D01*
X10189Y42438D01*
X10226Y42430D01*
X10259Y42418D01*
X10289Y42400D01*
X10315Y42378D01*
X10337Y42353D01*
X10355Y42324D01*
X10368Y42292D01*
X10378Y42258D01*
X10385Y42223D01*
X10390Y42188D01*
X10391Y42153D01*
X10389Y42108D01*
X10384Y42066D01*
X10376Y42027D01*
X10364Y41991D01*
X10349Y41958D01*
X10330Y41930D01*
X10307Y41906D01*
X10280Y41887D01*
X10251Y41872D01*
X10221Y41862D01*
X10189Y41855D01*
X10157Y41853D01*
X10118Y41856D01*
X10082Y41865D01*
X10049Y41879D01*
X10020Y41900D01*
X9994Y41926D01*
X9973Y41958D01*
X9956Y41995D01*
X9944Y42038D01*
X9944Y42038D01*
X13003Y41783D02*
X13003Y42510D01*
X12754Y42510D01*
X12754Y42424D01*
X12906Y42424D01*
X12906Y41869D01*
X12906Y41869D01*
X12751Y41869D01*
X12717Y41870D01*
X12687Y41872D01*
X12661Y41876D01*
X12638Y41882D01*
X12619Y41890D01*
X12601Y41898D01*
X12586Y41908D01*
X12573Y41920D01*
X12557Y41939D01*
X12543Y41960D01*
X12530Y41985D01*
X12520Y42012D01*
X12511Y42042D01*
X12505Y42076D01*
X12502Y42112D01*
X12501Y42152D01*
X12503Y42206D01*
X12510Y42253D01*
X12522Y42294D01*
X12538Y42327D01*
X12558Y42356D01*
X12580Y42379D01*
X12603Y42397D01*
X12629Y42410D01*
X12651Y42416D01*
X12680Y42421D01*
X12714Y42424D01*
X12754Y42424D01*
X12754Y42510D01*
X12752Y42510D01*
X12712Y42510D01*
X12677Y42508D01*
X12647Y42504D01*
X12623Y42500D01*
X12593Y42491D01*
X12565Y42480D01*
X12539Y42465D01*
X12516Y42448D01*
X12489Y42422D01*
X12466Y42392D01*
X12446Y42360D01*
X12430Y42323D01*
X12417Y42284D01*
X12408Y42242D01*
X12403Y42198D01*
X12401Y42151D01*
X12403Y42110D01*
X12406Y42072D01*
X12412Y42037D01*
X12421Y42004D01*
X12431Y41973D01*
X12443Y41945D01*
X12456Y41920D01*
X12470Y41898D01*
X12486Y41878D01*
X12502Y41860D01*
X12519Y41845D01*
X12537Y41832D01*
X12555Y41821D01*
X12576Y41811D01*
X12599Y41802D01*
X12623Y41795D01*
X12650Y41790D01*
X12678Y41786D01*
X12708Y41784D01*
X12740Y41783D01*
X13003Y41783D01*
X13003Y41783D01*
X15541Y41783D02*
X15541Y42510D01*
X15015Y42510D01*
X15015Y42424D01*
X15444Y42424D01*
X15444Y42202D01*
X15042Y42202D01*
X15042Y42116D01*
X15444Y42116D01*
X15444Y41869D01*
X14998Y41869D01*
X14998Y41783D01*
X15541Y41783D01*
X15541Y41783D01*
X16512Y40259D02*
X16602Y40259D01*
X16602Y40828D01*
X16619Y40813D01*
X16639Y40797D01*
X16661Y40782D01*
X16686Y40767D01*
X16712Y40752D01*
X16736Y40740D01*
X16759Y40729D01*
X16780Y40720D01*
X16780Y40807D01*
X16744Y40825D01*
X16710Y40846D01*
X16679Y40868D01*
X16649Y40892D01*
X16623Y40917D01*
X16602Y40941D01*
X16584Y40965D01*
X16570Y40989D01*
X16512Y40989D01*
X16512Y40259D01*
X16512Y40259D01*
X16380Y37805D02*
X16380Y37719D01*
X16860Y37719D01*
X16860Y37735D01*
X16858Y37751D01*
X16855Y37766D01*
X16850Y37781D01*
X16839Y37805D01*
X16826Y37830D01*
X16810Y37854D01*
X16791Y37878D01*
X16769Y37902D01*
X16742Y37929D01*
X16710Y37958D01*
X16674Y37988D01*
X16620Y38034D01*
X16575Y38075D01*
X16540Y38111D01*
X16514Y38142D01*
X16496Y38170D01*
X16483Y38197D01*
X16475Y38224D01*
X16472Y38249D01*
X16475Y38275D01*
X16482Y38298D01*
X16494Y38320D01*
X16510Y38339D01*
X16531Y38355D01*
X16554Y38366D01*
X16580Y38373D01*
X16609Y38375D01*
X16640Y38373D01*
X16667Y38366D01*
X16691Y38354D01*
X16712Y38337D01*
X16729Y38315D01*
X16742Y38290D01*
X16749Y38262D01*
X16752Y38229D01*
X16843Y38239D01*
X16835Y38287D01*
X16821Y38329D01*
X16800Y38365D01*
X16772Y38395D01*
X16739Y38419D01*
X16700Y38436D01*
X16656Y38446D01*
X16607Y38449D01*
X16558Y38446D01*
X16513Y38435D01*
X16475Y38417D01*
X16442Y38391D01*
X16415Y38360D01*
X16396Y38326D01*
X16384Y38289D01*
X16381Y38247D01*
X16382Y38226D01*
X16385Y38204D01*
X16391Y38183D01*
X16398Y38162D01*
X16409Y38140D01*
X16422Y38118D01*
X16438Y38096D01*
X16458Y38073D01*
X16482Y38047D01*
X16513Y38017D01*
X16551Y37983D01*
X16595Y37945D01*
X16632Y37914D01*
X16661Y37888D01*
X16684Y37868D01*
X16699Y37853D01*
X16709Y37841D01*
X16719Y37829D01*
X16728Y37817D01*
X16736Y37805D01*
X16380Y37805D01*
X16380Y37805D01*
X16563Y32639D02*
X16563Y32813D01*
X16878Y32813D01*
X16878Y32895D01*
X16619Y33263D01*
X16563Y33223D01*
X16790Y32895D01*
X16563Y32895D01*
X16563Y32895D01*
X16563Y33223D01*
X16619Y33263D01*
X16546Y33366D01*
X16473Y33366D01*
X16473Y32895D01*
X16375Y32895D01*
X16375Y32813D01*
X16473Y32813D01*
X16473Y32639D01*
X16563Y32639D01*
X16563Y32639D01*
X16849Y30290D02*
X16755Y30297D01*
X16748Y30265D01*
X16738Y30237D01*
X16724Y30214D01*
X16707Y30194D01*
X16687Y30179D01*
X16665Y30169D01*
X16641Y30162D01*
X16615Y30160D01*
X16584Y30163D01*
X16556Y30172D01*
X16530Y30187D01*
X16506Y30209D01*
X16486Y30235D01*
X16473Y30265D01*
X16464Y30299D01*
X16461Y30338D01*
X16464Y30374D01*
X16472Y30406D01*
X16486Y30434D01*
X16504Y30458D01*
X16527Y30477D01*
X16554Y30491D01*
X16584Y30500D01*
X16617Y30502D01*
X16638Y30501D01*
X16658Y30497D01*
X16677Y30491D01*
X16695Y30483D01*
X16711Y30472D01*
X16726Y30460D01*
X16738Y30447D01*
X16749Y30432D01*
X16833Y30443D01*
X16763Y30816D01*
X16401Y30816D01*
X16401Y30731D01*
X16691Y30731D01*
X16730Y30536D01*
X16697Y30556D01*
X16663Y30570D01*
X16628Y30578D01*
X16593Y30581D01*
X16547Y30577D01*
X16505Y30565D01*
X16467Y30544D01*
X16432Y30515D01*
X16403Y30480D01*
X16383Y30440D01*
X16371Y30395D01*
X16367Y30346D01*
X16370Y30298D01*
X16381Y30254D01*
X16399Y30213D01*
X16424Y30175D01*
X16462Y30136D01*
X16507Y30109D01*
X16558Y30092D01*
X16615Y30087D01*
X16663Y30090D01*
X16705Y30100D01*
X16743Y30118D01*
X16777Y30142D01*
X16805Y30172D01*
X16826Y30207D01*
X16841Y30246D01*
X16849Y30290D01*
X16849Y30290D01*
X16385Y28108D02*
X16474Y28101D01*
X16481Y28126D01*
X16489Y28147D01*
X16498Y28164D01*
X16508Y28178D01*
X16527Y28194D01*
X16548Y28206D01*
X16572Y28213D01*
X16597Y28216D01*
X16618Y28214D01*
X16637Y28210D01*
X16655Y28202D01*
X16672Y28192D01*
X16692Y28175D01*
X16710Y28154D01*
X16725Y28130D01*
X16739Y28102D01*
X16749Y28070D01*
X16757Y28031D01*
X16762Y27985D01*
X16764Y27934D01*
X16717Y27897D01*
X16726Y27885D01*
X16740Y27858D01*
X16747Y27828D01*
X16750Y27795D01*
X16750Y27795D01*
X16749Y27772D01*
X16745Y27749D01*
X16739Y27728D01*
X16731Y27706D01*
X16720Y27687D01*
X16707Y27669D01*
X16692Y27654D01*
X16676Y27642D01*
X16658Y27632D01*
X16640Y27626D01*
X16621Y27621D01*
X16602Y27620D01*
X16574Y27623D01*
X16549Y27631D01*
X16526Y27646D01*
X16505Y27666D01*
X16487Y27691D01*
X16474Y27719D01*
X16466Y27753D01*
X16464Y27790D01*
X16466Y27825D01*
X16474Y27857D01*
X16486Y27885D01*
X16504Y27908D01*
X16525Y27927D01*
X16549Y27941D01*
X16576Y27949D01*
X16605Y27952D01*
X16634Y27949D01*
X16661Y27941D01*
X16686Y27927D01*
X16708Y27908D01*
X16717Y27897D01*
X16764Y27934D01*
X16747Y27957D01*
X16728Y27977D01*
X16708Y27993D01*
X16685Y28007D01*
X16662Y28017D01*
X16637Y28025D01*
X16613Y28029D01*
X16587Y28031D01*
X16544Y28027D01*
X16505Y28014D01*
X16468Y27994D01*
X16435Y27965D01*
X16408Y27930D01*
X16388Y27890D01*
X16377Y27845D01*
X16373Y27795D01*
X16374Y27762D01*
X16380Y27729D01*
X16389Y27698D01*
X16402Y27668D01*
X16418Y27640D01*
X16437Y27616D01*
X16459Y27595D01*
X16483Y27578D01*
X16510Y27564D01*
X16538Y27554D01*
X16568Y27549D01*
X16600Y27547D01*
X16654Y27552D01*
X16702Y27567D01*
X16745Y27593D01*
X16782Y27629D01*
X16813Y27676D01*
X16835Y27737D01*
X16848Y27812D01*
X16853Y27899D01*
X16848Y27998D01*
X16833Y28081D01*
X16809Y28151D01*
X16775Y28206D01*
X16738Y28242D01*
X16695Y28268D01*
X16646Y28284D01*
X16592Y28289D01*
X16551Y28286D01*
X16514Y28277D01*
X16481Y28262D01*
X16451Y28241D01*
X16427Y28215D01*
X16407Y28184D01*
X16394Y28148D01*
X16385Y28108D01*
X16385Y28108D01*
X16843Y25651D02*
X16843Y25737D01*
X16372Y25737D01*
X16372Y25667D01*
X16407Y25627D01*
X16441Y25581D01*
X16476Y25529D01*
X16510Y25471D01*
X16542Y25409D01*
X16570Y25347D01*
X16595Y25283D01*
X16615Y25219D01*
X16627Y25172D01*
X16637Y25123D01*
X16644Y25072D01*
X16649Y25019D01*
X16741Y25019D01*
X16739Y25064D01*
X16732Y25114D01*
X16722Y25168D01*
X16707Y25226D01*
X16690Y25287D01*
X16668Y25346D01*
X16643Y25404D01*
X16615Y25461D01*
X16584Y25515D01*
X16553Y25565D01*
X16520Y25610D01*
X16487Y25651D01*
X16843Y25651D01*
X16843Y25651D01*
X16835Y20107D02*
X16750Y20115D01*
X16743Y20087D01*
X16734Y20063D01*
X16722Y20043D01*
X16708Y20027D01*
X16691Y20015D01*
X16673Y20007D01*
X16652Y20002D01*
X16629Y20000D01*
X16609Y20001D01*
X16590Y20005D01*
X16573Y20011D01*
X16557Y20019D01*
X16542Y20029D01*
X16529Y20041D01*
X16517Y20054D01*
X16506Y20069D01*
X16497Y20086D01*
X16488Y20106D01*
X16480Y20129D01*
X16473Y20154D01*
X16467Y20181D01*
X16463Y20208D01*
X16460Y20236D01*
X16459Y20263D01*
X16459Y20267D01*
X16460Y20271D01*
X16460Y20276D01*
X16460Y20281D01*
X16505Y20314D01*
X16492Y20332D01*
X16480Y20360D01*
X16472Y20392D01*
X16470Y20428D01*
X16470Y20428D01*
X16472Y20465D01*
X16480Y20497D01*
X16493Y20526D01*
X16511Y20550D01*
X16532Y20570D01*
X16556Y20584D01*
X16581Y20593D01*
X16609Y20595D01*
X16638Y20592D01*
X16665Y20583D01*
X16690Y20568D01*
X16713Y20547D01*
X16732Y20521D01*
X16746Y20491D01*
X16754Y20458D01*
X16757Y20421D01*
X16754Y20388D01*
X16747Y20358D01*
X16733Y20331D01*
X16715Y20308D01*
X16693Y20289D01*
X16668Y20275D01*
X16641Y20267D01*
X16612Y20264D01*
X16582Y20267D01*
X16555Y20275D01*
X16531Y20289D01*
X16510Y20308D01*
X16505Y20314D01*
X16460Y20281D01*
X16475Y20261D01*
X16492Y20243D01*
X16511Y20226D01*
X16533Y20212D01*
X16557Y20200D01*
X16581Y20192D01*
X16607Y20187D01*
X16634Y20186D01*
X16677Y20190D01*
X16717Y20202D01*
X16753Y20222D01*
X16786Y20251D01*
X16814Y20286D01*
X16833Y20327D01*
X16845Y20373D01*
X16849Y20424D01*
X16845Y20476D01*
X16833Y20524D01*
X16812Y20565D01*
X16784Y20602D01*
X16749Y20631D01*
X16710Y20652D01*
X16667Y20665D01*
X16620Y20669D01*
X16585Y20667D01*
X16552Y20660D01*
X16521Y20648D01*
X16490Y20631D01*
X16463Y20610D01*
X16439Y20585D01*
X16418Y20555D01*
X16401Y20522D01*
X16388Y20483D01*
X16378Y20436D01*
X16373Y20381D01*
X16371Y20318D01*
X16372Y20251D01*
X16378Y20192D01*
X16388Y20140D01*
X16401Y20096D01*
X16418Y20057D01*
X16439Y20023D01*
X16463Y19994D01*
X16491Y19970D01*
X16522Y19951D01*
X16556Y19937D01*
X16592Y19929D01*
X16631Y19927D01*
X16672Y19930D01*
X16709Y19938D01*
X16741Y19953D01*
X16770Y19974D01*
X16795Y20000D01*
X16814Y20031D01*
X16827Y20067D01*
X16835Y20107D01*
X16835Y20107D01*
X17071Y14859D02*
X17161Y14859D01*
X17161Y15428D01*
X17178Y15413D01*
X17198Y15397D01*
X17220Y15382D01*
X17245Y15367D01*
X17271Y15352D01*
X17295Y15340D01*
X17318Y15329D01*
X17339Y15320D01*
X17339Y15407D01*
X17303Y15425D01*
X17269Y15446D01*
X17237Y15468D01*
X17208Y15492D01*
X17182Y15517D01*
X17160Y15541D01*
X17143Y15565D01*
X17129Y15589D01*
X17071Y15589D01*
X17071Y14859D01*
X17071Y14859D01*
X16582Y14859D02*
X16671Y14859D01*
X16671Y15428D01*
X16688Y15413D01*
X16708Y15397D01*
X16731Y15382D01*
X16756Y15367D01*
X16781Y15352D01*
X16805Y15340D01*
X16828Y15329D01*
X16850Y15320D01*
X16850Y15407D01*
X16813Y15425D01*
X16779Y15446D01*
X16748Y15468D01*
X16719Y15492D01*
X16693Y15517D01*
X16671Y15541D01*
X16653Y15565D01*
X16639Y15589D01*
X16582Y15589D01*
X16582Y14859D01*
X16582Y14859D01*
X17071Y17399D02*
X17161Y17399D01*
X17161Y17968D01*
X17178Y17953D01*
X17198Y17937D01*
X17220Y17922D01*
X17245Y17907D01*
X17271Y17892D01*
X17295Y17880D01*
X17318Y17869D01*
X17339Y17860D01*
X17339Y17947D01*
X17303Y17965D01*
X17269Y17986D01*
X17237Y18008D01*
X17208Y18032D01*
X17182Y18057D01*
X17160Y18081D01*
X17143Y18105D01*
X17129Y18129D01*
X17071Y18129D01*
X17071Y17399D01*
X17071Y17399D01*
X16843Y17758D02*
X16841Y17819D01*
X16836Y17874D01*
X16828Y17923D01*
X16816Y17965D01*
X16801Y18002D01*
X16783Y18035D01*
X16762Y18063D01*
X16737Y18087D01*
X16709Y18105D01*
X16678Y18119D01*
X16643Y18127D01*
X16605Y18129D01*
X16577Y18128D01*
X16550Y18123D01*
X16526Y18116D01*
X16503Y18106D01*
X16482Y18093D01*
X16462Y18077D01*
X16445Y18059D01*
X16430Y18038D01*
X16416Y18014D01*
X16404Y17988D01*
X16394Y17960D01*
X16385Y17930D01*
X16378Y17895D01*
X16372Y17855D01*
X16369Y17809D01*
X16368Y17758D01*
X16370Y17697D01*
X16375Y17642D01*
X16383Y17593D01*
X16395Y17551D01*
X16409Y17514D01*
X16427Y17481D01*
X16449Y17453D01*
X16473Y17430D01*
X16501Y17411D01*
X16532Y17397D01*
X16567Y17389D01*
X16605Y17387D01*
X16612Y17387D01*
X16605Y17460D01*
X16576Y17464D01*
X16549Y17475D01*
X16524Y17494D01*
X16502Y17520D01*
X16484Y17557D01*
X16471Y17609D01*
X16463Y17676D01*
X16460Y17758D01*
X16463Y17840D01*
X16471Y17907D01*
X16484Y17959D01*
X16502Y17996D01*
X16524Y18022D01*
X16549Y18041D01*
X16576Y18052D01*
X16606Y18055D01*
X16636Y18052D01*
X16662Y18042D01*
X16685Y18026D01*
X16705Y18003D01*
X16725Y17963D01*
X16739Y17909D01*
X16748Y17840D01*
X16751Y17758D01*
X16751Y17758D01*
X16748Y17676D01*
X16740Y17609D01*
X16727Y17556D01*
X16709Y17519D01*
X16687Y17493D01*
X16662Y17475D01*
X16635Y17464D01*
X16605Y17460D01*
X16612Y17387D01*
X16655Y17391D01*
X16699Y17405D01*
X16738Y17429D01*
X16771Y17462D01*
X16802Y17515D01*
X16825Y17581D01*
X16838Y17662D01*
X16843Y17758D01*
X16843Y17758D01*
X17071Y7239D02*
X17161Y7239D01*
X17161Y7808D01*
X17178Y7793D01*
X17198Y7777D01*
X17220Y7762D01*
X17245Y7747D01*
X17271Y7732D01*
X17295Y7720D01*
X17318Y7709D01*
X17339Y7700D01*
X17339Y7787D01*
X17303Y7805D01*
X17269Y7826D01*
X17237Y7848D01*
X17208Y7872D01*
X17182Y7897D01*
X17160Y7921D01*
X17143Y7945D01*
X17129Y7969D01*
X17071Y7969D01*
X17071Y7239D01*
X17071Y7239D01*
X16556Y7239D02*
X16556Y7413D01*
X16872Y7413D01*
X16872Y7495D01*
X16613Y7863D01*
X16556Y7823D01*
X16784Y7495D01*
X16556Y7495D01*
X16556Y7495D01*
X16556Y7823D01*
X16613Y7863D01*
X16540Y7966D01*
X16467Y7966D01*
X16467Y7495D01*
X16369Y7495D01*
X16369Y7413D01*
X16467Y7413D01*
X16467Y7239D01*
X16556Y7239D01*
X16556Y7239D01*
X17071Y4699D02*
X17161Y4699D01*
X17161Y5268D01*
X17178Y5253D01*
X17198Y5237D01*
X17220Y5222D01*
X17245Y5207D01*
X17271Y5192D01*
X17295Y5180D01*
X17318Y5169D01*
X17339Y5160D01*
X17339Y5247D01*
X17303Y5265D01*
X17269Y5286D01*
X17237Y5308D01*
X17208Y5332D01*
X17182Y5357D01*
X17160Y5381D01*
X17143Y5405D01*
X17129Y5429D01*
X17071Y5429D01*
X17071Y4699D01*
X17071Y4699D01*
X16843Y4889D02*
X16749Y4897D01*
X16742Y4865D01*
X16732Y4837D01*
X16718Y4814D01*
X16700Y4794D01*
X16680Y4779D01*
X16659Y4769D01*
X16635Y4762D01*
X16609Y4760D01*
X16578Y4763D01*
X16549Y4772D01*
X16523Y4787D01*
X16500Y4809D01*
X16480Y4835D01*
X16466Y4865D01*
X16458Y4899D01*
X16455Y4938D01*
X16458Y4974D01*
X16466Y5006D01*
X16479Y5034D01*
X16498Y5058D01*
X16521Y5077D01*
X16548Y5091D01*
X16577Y5100D01*
X16610Y5102D01*
X16631Y5101D01*
X16651Y5097D01*
X16670Y5091D01*
X16688Y5083D01*
X16705Y5072D01*
X16719Y5060D01*
X16732Y5047D01*
X16743Y5032D01*
X16827Y5043D01*
X16756Y5416D01*
X16395Y5416D01*
X16395Y5331D01*
X16685Y5331D01*
X16724Y5136D01*
X16691Y5156D01*
X16657Y5170D01*
X16622Y5178D01*
X16587Y5181D01*
X16541Y5177D01*
X16499Y5165D01*
X16460Y5144D01*
X16426Y5115D01*
X16397Y5080D01*
X16377Y5040D01*
X16364Y4995D01*
X16360Y4946D01*
X16364Y4898D01*
X16375Y4854D01*
X16393Y4813D01*
X16418Y4775D01*
X16456Y4736D01*
X16501Y4709D01*
X16552Y4692D01*
X16609Y4687D01*
X16656Y4690D01*
X16699Y4700D01*
X16737Y4718D01*
X16771Y4742D01*
X16799Y4772D01*
X16820Y4807D01*
X16835Y4846D01*
X16843Y4889D01*
X16843Y4889D01*
X17071Y12319D02*
X17161Y12319D01*
X17161Y12888D01*
X17178Y12873D01*
X17198Y12857D01*
X17220Y12842D01*
X17245Y12827D01*
X17271Y12812D01*
X17295Y12800D01*
X17318Y12789D01*
X17339Y12780D01*
X17339Y12867D01*
X17303Y12885D01*
X17269Y12906D01*
X17237Y12928D01*
X17208Y12952D01*
X17182Y12977D01*
X17160Y13001D01*
X17143Y13025D01*
X17129Y13049D01*
X17071Y13049D01*
X17071Y12319D01*
X17071Y12319D01*
X16373Y12405D02*
X16373Y12319D01*
X16854Y12319D01*
X16854Y12335D01*
X16852Y12351D01*
X16848Y12366D01*
X16844Y12381D01*
X16833Y12405D01*
X16820Y12430D01*
X16804Y12454D01*
X16785Y12478D01*
X16762Y12502D01*
X16735Y12529D01*
X16704Y12558D01*
X16668Y12588D01*
X16613Y12634D01*
X16569Y12675D01*
X16533Y12711D01*
X16508Y12742D01*
X16489Y12770D01*
X16476Y12797D01*
X16469Y12824D01*
X16466Y12849D01*
X16468Y12875D01*
X16476Y12898D01*
X16487Y12920D01*
X16504Y12939D01*
X16524Y12955D01*
X16548Y12966D01*
X16574Y12973D01*
X16603Y12975D01*
X16634Y12973D01*
X16661Y12966D01*
X16685Y12954D01*
X16706Y12937D01*
X16723Y12915D01*
X16735Y12890D01*
X16743Y12862D01*
X16745Y12829D01*
X16837Y12839D01*
X16829Y12887D01*
X16815Y12929D01*
X16794Y12965D01*
X16766Y12995D01*
X16733Y13019D01*
X16694Y13036D01*
X16650Y13046D01*
X16601Y13049D01*
X16551Y13046D01*
X16507Y13035D01*
X16469Y13017D01*
X16435Y12991D01*
X16409Y12960D01*
X16390Y12926D01*
X16378Y12889D01*
X16374Y12847D01*
X16375Y12826D01*
X16379Y12804D01*
X16384Y12783D01*
X16392Y12762D01*
X16403Y12740D01*
X16416Y12718D01*
X16432Y12696D01*
X16451Y12673D01*
X16476Y12647D01*
X16507Y12617D01*
X16544Y12583D01*
X16589Y12545D01*
X16626Y12514D01*
X16655Y12488D01*
X16677Y12468D01*
X16692Y12453D01*
X16703Y12441D01*
X16713Y12429D01*
X16722Y12417D01*
X16730Y12405D01*
X16373Y12405D01*
X16373Y12405D01*
X3431Y40259D02*
X3521Y40259D01*
X3521Y40828D01*
X3538Y40813D01*
X3558Y40797D01*
X3580Y40782D01*
X3605Y40767D01*
X3631Y40752D01*
X3655Y40740D01*
X3678Y40729D01*
X3699Y40720D01*
X3699Y40807D01*
X3663Y40825D01*
X3629Y40846D01*
X3598Y40868D01*
X3568Y40892D01*
X3542Y40917D01*
X3521Y40941D01*
X3503Y40965D01*
X3489Y40989D01*
X3431Y40989D01*
X3431Y40259D01*
X3431Y40259D01*
X3299Y37805D02*
X3299Y37719D01*
X3779Y37719D01*
X3779Y37735D01*
X3777Y37751D01*
X3774Y37766D01*
X3769Y37781D01*
X3758Y37805D01*
X3745Y37830D01*
X3729Y37854D01*
X3710Y37878D01*
X3688Y37902D01*
X3661Y37929D01*
X3629Y37958D01*
X3593Y37988D01*
X3539Y38034D01*
X3494Y38075D01*
X3459Y38111D01*
X3433Y38142D01*
X3415Y38170D01*
X3402Y38197D01*
X3394Y38224D01*
X3391Y38249D01*
X3394Y38275D01*
X3401Y38298D01*
X3413Y38320D01*
X3429Y38339D01*
X3450Y38355D01*
X3473Y38366D01*
X3499Y38373D01*
X3528Y38375D01*
X3559Y38373D01*
X3586Y38366D01*
X3610Y38354D01*
X3631Y38337D01*
X3648Y38315D01*
X3661Y38290D01*
X3668Y38262D01*
X3671Y38229D01*
X3762Y38239D01*
X3754Y38287D01*
X3740Y38329D01*
X3719Y38365D01*
X3691Y38395D01*
X3658Y38419D01*
X3619Y38436D01*
X3575Y38446D01*
X3526Y38449D01*
X3477Y38446D01*
X3432Y38435D01*
X3394Y38417D01*
X3361Y38391D01*
X3334Y38360D01*
X3315Y38326D01*
X3303Y38289D01*
X3300Y38247D01*
X3301Y38226D01*
X3304Y38204D01*
X3310Y38183D01*
X3317Y38162D01*
X3328Y38140D01*
X3341Y38118D01*
X3357Y38096D01*
X3377Y38073D01*
X3401Y38047D01*
X3432Y38017D01*
X3470Y37983D01*
X3514Y37945D01*
X3551Y37914D01*
X3580Y37888D01*
X3603Y37868D01*
X3618Y37853D01*
X3628Y37841D01*
X3638Y37829D01*
X3647Y37817D01*
X3655Y37805D01*
X3299Y37805D01*
X3299Y37805D01*
X3767Y35371D02*
X3678Y35383D01*
X3669Y35348D01*
X3657Y35318D01*
X3643Y35293D01*
X3626Y35274D01*
X3606Y35259D01*
X3585Y35248D01*
X3561Y35242D01*
X3536Y35240D01*
X3505Y35243D01*
X3478Y35251D01*
X3452Y35265D01*
X3429Y35284D01*
X3410Y35307D01*
X3397Y35333D01*
X3389Y35361D01*
X3386Y35392D01*
X3388Y35421D01*
X3396Y35448D01*
X3408Y35472D01*
X3426Y35493D01*
X3447Y35511D01*
X3472Y35523D01*
X3499Y35531D01*
X3528Y35533D01*
X3542Y35533D01*
X3557Y35531D01*
X3573Y35528D01*
X3591Y35523D01*
X3581Y35602D01*
X3577Y35601D01*
X3573Y35601D01*
X3570Y35601D01*
X3567Y35601D01*
X3539Y35603D01*
X3513Y35608D01*
X3488Y35617D01*
X3464Y35630D01*
X3444Y35647D01*
X3430Y35668D01*
X3421Y35693D01*
X3419Y35722D01*
X3421Y35746D01*
X3427Y35767D01*
X3437Y35786D01*
X3452Y35804D01*
X3470Y35818D01*
X3490Y35828D01*
X3513Y35834D01*
X3538Y35836D01*
X3563Y35834D01*
X3585Y35828D01*
X3606Y35817D01*
X3624Y35803D01*
X3640Y35785D01*
X3653Y35762D01*
X3663Y35736D01*
X3669Y35705D01*
X3758Y35721D01*
X3748Y35763D01*
X3732Y35800D01*
X3710Y35833D01*
X3684Y35860D01*
X3653Y35881D01*
X3619Y35897D01*
X3581Y35906D01*
X3540Y35909D01*
X3510Y35908D01*
X3482Y35903D01*
X3456Y35895D01*
X3430Y35884D01*
X3406Y35870D01*
X3386Y35854D01*
X3368Y35835D01*
X3353Y35814D01*
X3342Y35792D01*
X3333Y35768D01*
X3328Y35745D01*
X3327Y35720D01*
X3328Y35697D01*
X3333Y35675D01*
X3341Y35654D01*
X3352Y35634D01*
X3366Y35616D01*
X3383Y35600D01*
X3404Y35585D01*
X3427Y35573D01*
X3397Y35563D01*
X3370Y35550D01*
X3346Y35533D01*
X3327Y35511D01*
X3311Y35486D01*
X3300Y35458D01*
X3293Y35428D01*
X3291Y35394D01*
X3295Y35348D01*
X3308Y35306D01*
X3330Y35267D01*
X3361Y35232D01*
X3398Y35203D01*
X3439Y35183D01*
X3485Y35170D01*
X3536Y35166D01*
X3582Y35170D01*
X3624Y35180D01*
X3661Y35198D01*
X3695Y35223D01*
X3723Y35254D01*
X3745Y35289D01*
X3759Y35328D01*
X3767Y35371D01*
X3767Y35371D01*
X3482Y32639D02*
X3482Y32813D01*
X3797Y32813D01*
X3797Y32895D01*
X3538Y33263D01*
X3482Y33223D01*
X3709Y32895D01*
X3482Y32895D01*
X3482Y32895D01*
X3482Y33223D01*
X3538Y33263D01*
X3465Y33366D01*
X3392Y33366D01*
X3392Y32895D01*
X3294Y32895D01*
X3294Y32813D01*
X3392Y32813D01*
X3392Y32639D01*
X3482Y32639D01*
X3482Y32639D01*
X3768Y30290D02*
X3674Y30297D01*
X3667Y30265D01*
X3657Y30237D01*
X3643Y30214D01*
X3626Y30194D01*
X3606Y30179D01*
X3584Y30169D01*
X3560Y30162D01*
X3534Y30160D01*
X3503Y30163D01*
X3475Y30172D01*
X3449Y30187D01*
X3425Y30209D01*
X3405Y30235D01*
X3392Y30265D01*
X3383Y30299D01*
X3380Y30338D01*
X3383Y30374D01*
X3391Y30406D01*
X3405Y30434D01*
X3423Y30458D01*
X3446Y30477D01*
X3473Y30491D01*
X3503Y30500D01*
X3536Y30502D01*
X3557Y30501D01*
X3577Y30497D01*
X3596Y30491D01*
X3614Y30483D01*
X3630Y30472D01*
X3645Y30460D01*
X3657Y30447D01*
X3668Y30432D01*
X3752Y30443D01*
X3682Y30816D01*
X3320Y30816D01*
X3320Y30731D01*
X3610Y30731D01*
X3649Y30536D01*
X3616Y30556D01*
X3582Y30570D01*
X3547Y30578D01*
X3512Y30581D01*
X3466Y30577D01*
X3424Y30565D01*
X3386Y30544D01*
X3351Y30515D01*
X3322Y30480D01*
X3302Y30440D01*
X3290Y30395D01*
X3286Y30346D01*
X3289Y30298D01*
X3300Y30254D01*
X3318Y30213D01*
X3343Y30175D01*
X3381Y30136D01*
X3426Y30109D01*
X3477Y30092D01*
X3534Y30087D01*
X3582Y30090D01*
X3624Y30100D01*
X3662Y30118D01*
X3696Y30142D01*
X3724Y30172D01*
X3745Y30207D01*
X3760Y30246D01*
X3768Y30290D01*
X3768Y30290D01*
X3304Y28108D02*
X3393Y28101D01*
X3400Y28126D01*
X3408Y28147D01*
X3417Y28164D01*
X3427Y28178D01*
X3446Y28194D01*
X3467Y28206D01*
X3491Y28213D01*
X3516Y28216D01*
X3537Y28214D01*
X3556Y28210D01*
X3574Y28202D01*
X3591Y28192D01*
X3611Y28175D01*
X3629Y28154D01*
X3644Y28130D01*
X3658Y28102D01*
X3668Y28070D01*
X3676Y28031D01*
X3681Y27985D01*
X3683Y27934D01*
X3636Y27897D01*
X3645Y27885D01*
X3659Y27858D01*
X3666Y27828D01*
X3669Y27795D01*
X3669Y27795D01*
X3668Y27772D01*
X3664Y27749D01*
X3658Y27728D01*
X3650Y27706D01*
X3639Y27687D01*
X3626Y27669D01*
X3611Y27654D01*
X3595Y27642D01*
X3577Y27632D01*
X3559Y27626D01*
X3540Y27621D01*
X3521Y27620D01*
X3493Y27623D01*
X3468Y27631D01*
X3445Y27646D01*
X3424Y27666D01*
X3406Y27691D01*
X3393Y27719D01*
X3385Y27753D01*
X3383Y27790D01*
X3385Y27825D01*
X3393Y27857D01*
X3405Y27885D01*
X3423Y27908D01*
X3444Y27927D01*
X3468Y27941D01*
X3495Y27949D01*
X3524Y27952D01*
X3553Y27949D01*
X3580Y27941D01*
X3605Y27927D01*
X3627Y27908D01*
X3636Y27897D01*
X3683Y27934D01*
X3666Y27957D01*
X3647Y27977D01*
X3627Y27993D01*
X3604Y28007D01*
X3581Y28017D01*
X3556Y28025D01*
X3532Y28029D01*
X3506Y28031D01*
X3463Y28027D01*
X3424Y28014D01*
X3387Y27994D01*
X3354Y27965D01*
X3327Y27930D01*
X3307Y27890D01*
X3296Y27845D01*
X3292Y27795D01*
X3293Y27762D01*
X3299Y27729D01*
X3308Y27698D01*
X3321Y27668D01*
X3337Y27640D01*
X3356Y27616D01*
X3378Y27595D01*
X3402Y27578D01*
X3429Y27564D01*
X3457Y27554D01*
X3487Y27549D01*
X3519Y27547D01*
X3573Y27552D01*
X3621Y27567D01*
X3664Y27593D01*
X3701Y27629D01*
X3732Y27676D01*
X3754Y27737D01*
X3767Y27812D01*
X3772Y27899D01*
X3767Y27998D01*
X3752Y28081D01*
X3728Y28151D01*
X3694Y28206D01*
X3657Y28242D01*
X3614Y28268D01*
X3565Y28284D01*
X3511Y28289D01*
X3470Y28286D01*
X3433Y28277D01*
X3400Y28262D01*
X3370Y28241D01*
X3346Y28215D01*
X3326Y28184D01*
X3313Y28148D01*
X3304Y28108D01*
X3304Y28108D01*
X3762Y25651D02*
X3762Y25737D01*
X3291Y25737D01*
X3291Y25667D01*
X3326Y25627D01*
X3360Y25581D01*
X3395Y25529D01*
X3429Y25471D01*
X3461Y25409D01*
X3489Y25347D01*
X3514Y25283D01*
X3534Y25219D01*
X3546Y25172D01*
X3556Y25123D01*
X3563Y25072D01*
X3568Y25019D01*
X3660Y25019D01*
X3658Y25064D01*
X3651Y25114D01*
X3641Y25168D01*
X3626Y25226D01*
X3609Y25287D01*
X3587Y25346D01*
X3562Y25404D01*
X3534Y25461D01*
X3503Y25515D01*
X3472Y25565D01*
X3439Y25610D01*
X3406Y25651D01*
X3762Y25651D01*
X3762Y25651D01*
X3630Y22873D02*
X3601Y22818D01*
X3614Y22811D01*
X3636Y22793D01*
X3654Y22771D01*
X3667Y22746D01*
X3674Y22719D01*
X3677Y22689D01*
X3677Y22689D01*
X3676Y22670D01*
X3673Y22651D01*
X3667Y22633D01*
X3659Y22615D01*
X3649Y22598D01*
X3636Y22583D01*
X3622Y22570D01*
X3605Y22560D01*
X3587Y22551D01*
X3568Y22545D01*
X3548Y22541D01*
X3528Y22540D01*
X3498Y22543D01*
X3470Y22550D01*
X3445Y22563D01*
X3423Y22581D01*
X3404Y22603D01*
X3391Y22628D01*
X3383Y22656D01*
X3381Y22686D01*
X3384Y22717D01*
X3392Y22745D01*
X3405Y22770D01*
X3424Y22793D01*
X3447Y22811D01*
X3472Y22824D01*
X3500Y22832D01*
X3531Y22835D01*
X3561Y22832D01*
X3589Y22824D01*
X3601Y22818D01*
X3630Y22873D01*
X3597Y22926D01*
X3577Y22916D01*
X3554Y22910D01*
X3529Y22908D01*
X3504Y22910D01*
X3482Y22916D01*
X3462Y22926D01*
X3444Y22940D01*
X3430Y22957D01*
X3419Y22976D01*
X3413Y22997D01*
X3411Y23020D01*
X3413Y23043D01*
X3420Y23065D01*
X3430Y23085D01*
X3445Y23102D01*
X3463Y23117D01*
X3483Y23127D01*
X3505Y23134D01*
X3530Y23136D01*
X3554Y23134D01*
X3576Y23128D01*
X3597Y23117D01*
X3615Y23103D01*
X3629Y23086D01*
X3640Y23067D01*
X3646Y23047D01*
X3648Y23025D01*
X3648Y23025D01*
X3646Y23000D01*
X3640Y22978D01*
X3630Y22958D01*
X3615Y22940D01*
X3597Y22926D01*
X3630Y22873D01*
X3656Y22885D01*
X3679Y22898D01*
X3698Y22914D01*
X3713Y22931D01*
X3724Y22951D01*
X3733Y22973D01*
X3738Y22996D01*
X3740Y23022D01*
X3736Y23060D01*
X3725Y23095D01*
X3707Y23127D01*
X3683Y23155D01*
X3652Y23179D01*
X3616Y23196D01*
X3576Y23206D01*
X3531Y23209D01*
X3485Y23206D01*
X3445Y23195D01*
X3409Y23178D01*
X3377Y23154D01*
X3352Y23125D01*
X3334Y23093D01*
X3323Y23057D01*
X3319Y23019D01*
X3321Y22995D01*
X3326Y22972D01*
X3334Y22951D01*
X3346Y22931D01*
X3361Y22914D01*
X3379Y22898D01*
X3401Y22885D01*
X3427Y22873D01*
X3395Y22861D01*
X3368Y22845D01*
X3344Y22826D01*
X3325Y22803D01*
X3309Y22777D01*
X3298Y22750D01*
X3292Y22719D01*
X3290Y22687D01*
X3294Y22642D01*
X3306Y22601D01*
X3327Y22564D01*
X3356Y22530D01*
X3391Y22502D01*
X3432Y22482D01*
X3478Y22471D01*
X3529Y22467D01*
X3580Y22471D01*
X3626Y22483D01*
X3667Y22502D01*
X3703Y22530D01*
X3732Y22564D01*
X3752Y22602D01*
X3765Y22644D01*
X3769Y22689D01*
X3767Y22723D01*
X3760Y22755D01*
X3749Y22783D01*
X3733Y22808D01*
X3713Y22830D01*
X3689Y22848D01*
X3662Y22863D01*
X3630Y22873D01*
X3630Y22873D01*
X3754Y20107D02*
X3669Y20115D01*
X3662Y20087D01*
X3653Y20063D01*
X3641Y20043D01*
X3627Y20027D01*
X3610Y20015D01*
X3592Y20007D01*
X3571Y20002D01*
X3548Y20000D01*
X3528Y20001D01*
X3509Y20005D01*
X3492Y20011D01*
X3476Y20019D01*
X3461Y20029D01*
X3448Y20041D01*
X3436Y20054D01*
X3425Y20069D01*
X3416Y20086D01*
X3407Y20106D01*
X3399Y20129D01*
X3392Y20154D01*
X3386Y20181D01*
X3382Y20208D01*
X3379Y20236D01*
X3378Y20263D01*
X3378Y20267D01*
X3379Y20271D01*
X3379Y20276D01*
X3379Y20281D01*
X3424Y20314D01*
X3411Y20332D01*
X3399Y20360D01*
X3391Y20392D01*
X3389Y20428D01*
X3389Y20428D01*
X3391Y20465D01*
X3399Y20497D01*
X3412Y20526D01*
X3430Y20550D01*
X3451Y20570D01*
X3475Y20584D01*
X3500Y20593D01*
X3528Y20595D01*
X3557Y20592D01*
X3584Y20583D01*
X3609Y20568D01*
X3632Y20547D01*
X3651Y20521D01*
X3665Y20491D01*
X3673Y20458D01*
X3676Y20421D01*
X3673Y20388D01*
X3666Y20358D01*
X3652Y20331D01*
X3634Y20308D01*
X3612Y20289D01*
X3587Y20275D01*
X3560Y20267D01*
X3531Y20264D01*
X3501Y20267D01*
X3474Y20275D01*
X3450Y20289D01*
X3429Y20308D01*
X3424Y20314D01*
X3379Y20281D01*
X3394Y20261D01*
X3411Y20243D01*
X3430Y20226D01*
X3452Y20212D01*
X3476Y20200D01*
X3500Y20192D01*
X3526Y20187D01*
X3553Y20186D01*
X3596Y20190D01*
X3636Y20202D01*
X3672Y20222D01*
X3705Y20251D01*
X3733Y20286D01*
X3752Y20327D01*
X3764Y20373D01*
X3768Y20424D01*
X3764Y20476D01*
X3752Y20524D01*
X3731Y20565D01*
X3703Y20602D01*
X3668Y20631D01*
X3629Y20652D01*
X3586Y20665D01*
X3539Y20669D01*
X3504Y20667D01*
X3471Y20660D01*
X3440Y20648D01*
X3409Y20631D01*
X3382Y20610D01*
X3358Y20585D01*
X3337Y20555D01*
X3320Y20522D01*
X3307Y20483D01*
X3297Y20436D01*
X3292Y20381D01*
X3290Y20318D01*
X3291Y20251D01*
X3297Y20192D01*
X3307Y20140D01*
X3320Y20096D01*
X3337Y20057D01*
X3358Y20023D01*
X3382Y19994D01*
X3410Y19970D01*
X3441Y19951D01*
X3475Y19937D01*
X3511Y19929D01*
X3550Y19927D01*
X3591Y19930D01*
X3628Y19938D01*
X3660Y19953D01*
X3689Y19974D01*
X3714Y20000D01*
X3733Y20031D01*
X3746Y20067D01*
X3754Y20107D01*
X3754Y20107D01*
X3762Y17399D02*
X3851Y17399D01*
X3851Y17968D01*
X3868Y17953D01*
X3888Y17937D01*
X3911Y17922D01*
X3936Y17907D01*
X3961Y17892D01*
X3985Y17880D01*
X4008Y17869D01*
X4030Y17860D01*
X4030Y17947D01*
X3993Y17965D01*
X3959Y17986D01*
X3928Y18008D01*
X3899Y18032D01*
X3873Y18057D01*
X3851Y18081D01*
X3833Y18105D01*
X3819Y18129D01*
X3762Y18129D01*
X3762Y17399D01*
X3762Y17399D01*
X3533Y17758D02*
X3531Y17819D01*
X3526Y17874D01*
X3518Y17923D01*
X3506Y17965D01*
X3492Y18002D01*
X3473Y18035D01*
X3452Y18063D01*
X3428Y18087D01*
X3400Y18105D01*
X3368Y18119D01*
X3334Y18127D01*
X3296Y18129D01*
X3267Y18128D01*
X3241Y18123D01*
X3216Y18116D01*
X3193Y18106D01*
X3172Y18093D01*
X3153Y18077D01*
X3136Y18059D01*
X3120Y18038D01*
X3107Y18014D01*
X3095Y17988D01*
X3084Y17960D01*
X3075Y17930D01*
X3068Y17895D01*
X3063Y17855D01*
X3060Y17809D01*
X3059Y17758D01*
X3060Y17697D01*
X3065Y17642D01*
X3073Y17593D01*
X3085Y17551D01*
X3100Y17514D01*
X3118Y17481D01*
X3139Y17453D01*
X3164Y17430D01*
X3192Y17411D01*
X3223Y17397D01*
X3258Y17389D01*
X3296Y17387D01*
X3303Y17387D01*
X3296Y17460D01*
X3266Y17464D01*
X3239Y17475D01*
X3215Y17494D01*
X3192Y17520D01*
X3174Y17557D01*
X3161Y17609D01*
X3153Y17676D01*
X3150Y17758D01*
X3153Y17840D01*
X3161Y17907D01*
X3174Y17959D01*
X3192Y17996D01*
X3215Y18022D01*
X3239Y18041D01*
X3267Y18052D01*
X3297Y18055D01*
X3326Y18052D01*
X3352Y18042D01*
X3375Y18026D01*
X3395Y18003D01*
X3415Y17963D01*
X3430Y17909D01*
X3438Y17840D01*
X3441Y17758D01*
X3441Y17758D01*
X3439Y17676D01*
X3431Y17609D01*
X3418Y17556D01*
X3399Y17519D01*
X3377Y17493D01*
X3352Y17475D01*
X3325Y17464D01*
X3296Y17460D01*
X3303Y17387D01*
X3346Y17391D01*
X3390Y17405D01*
X3428Y17429D01*
X3461Y17462D01*
X3493Y17515D01*
X3515Y17581D01*
X3528Y17662D01*
X3533Y17758D01*
X3533Y17758D01*
X3762Y14859D02*
X3851Y14859D01*
X3851Y15428D01*
X3868Y15413D01*
X3888Y15397D01*
X3911Y15382D01*
X3936Y15367D01*
X3961Y15352D01*
X3985Y15340D01*
X4008Y15329D01*
X4030Y15320D01*
X4030Y15407D01*
X3993Y15425D01*
X3959Y15446D01*
X3928Y15468D01*
X3899Y15492D01*
X3873Y15517D01*
X3851Y15541D01*
X3833Y15565D01*
X3819Y15589D01*
X3762Y15589D01*
X3762Y14859D01*
X3762Y14859D01*
X3272Y14859D02*
X3361Y14859D01*
X3361Y15428D01*
X3379Y15413D01*
X3399Y15397D01*
X3421Y15382D01*
X3446Y15367D01*
X3471Y15352D01*
X3496Y15340D01*
X3518Y15329D01*
X3540Y15320D01*
X3540Y15407D01*
X3504Y15425D01*
X3470Y15446D01*
X3438Y15468D01*
X3409Y15492D01*
X3383Y15517D01*
X3361Y15541D01*
X3343Y15565D01*
X3330Y15589D01*
X3272Y15589D01*
X3272Y14859D01*
X3272Y14859D01*
X3762Y12319D02*
X3851Y12319D01*
X3851Y12888D01*
X3868Y12873D01*
X3888Y12857D01*
X3911Y12842D01*
X3936Y12827D01*
X3961Y12812D01*
X3985Y12800D01*
X4008Y12789D01*
X4030Y12780D01*
X4030Y12867D01*
X3993Y12885D01*
X3959Y12906D01*
X3928Y12928D01*
X3899Y12952D01*
X3873Y12977D01*
X3851Y13001D01*
X3833Y13025D01*
X3819Y13049D01*
X3762Y13049D01*
X3762Y12319D01*
X3762Y12319D01*
X3064Y12405D02*
X3064Y12319D01*
X3544Y12319D01*
X3544Y12335D01*
X3542Y12351D01*
X3539Y12366D01*
X3534Y12381D01*
X3523Y12405D01*
X3510Y12430D01*
X3494Y12454D01*
X3475Y12478D01*
X3453Y12502D01*
X3426Y12529D01*
X3394Y12558D01*
X3358Y12588D01*
X3304Y12634D01*
X3259Y12675D01*
X3224Y12711D01*
X3198Y12742D01*
X3180Y12770D01*
X3167Y12797D01*
X3159Y12824D01*
X3156Y12849D01*
X3159Y12875D01*
X3166Y12898D01*
X3178Y12920D01*
X3194Y12939D01*
X3215Y12955D01*
X3238Y12966D01*
X3264Y12973D01*
X3293Y12975D01*
X3324Y12973D01*
X3351Y12966D01*
X3376Y12954D01*
X3397Y12937D01*
X3414Y12915D01*
X3426Y12890D01*
X3433Y12862D01*
X3436Y12829D01*
X3528Y12839D01*
X3520Y12887D01*
X3505Y12929D01*
X3484Y12965D01*
X3457Y12995D01*
X3423Y13019D01*
X3385Y13036D01*
X3341Y13046D01*
X3291Y13049D01*
X3242Y13046D01*
X3198Y13035D01*
X3159Y13017D01*
X3126Y12991D01*
X3099Y12960D01*
X3080Y12926D01*
X3068Y12889D01*
X3065Y12847D01*
X3066Y12826D01*
X3069Y12804D01*
X3075Y12783D01*
X3083Y12762D01*
X3093Y12740D01*
X3106Y12718D01*
X3123Y12696D01*
X3142Y12673D01*
X3166Y12647D01*
X3197Y12617D01*
X3235Y12583D01*
X3279Y12545D01*
X3316Y12514D01*
X3345Y12488D01*
X3368Y12468D01*
X3383Y12453D01*
X3394Y12441D01*
X3403Y12429D01*
X3412Y12417D01*
X3420Y12405D01*
X3064Y12405D01*
X3064Y12405D01*
X3762Y9779D02*
X3851Y9779D01*
X3851Y10348D01*
X3868Y10333D01*
X3888Y10317D01*
X3911Y10302D01*
X3936Y10287D01*
X3961Y10272D01*
X3985Y10260D01*
X4008Y10249D01*
X4030Y10240D01*
X4030Y10327D01*
X3993Y10345D01*
X3959Y10366D01*
X3928Y10388D01*
X3899Y10412D01*
X3873Y10437D01*
X3851Y10461D01*
X3833Y10485D01*
X3819Y10509D01*
X3762Y10509D01*
X3762Y9779D01*
X3762Y9779D01*
X3532Y9971D02*
X3443Y9983D01*
X3434Y9948D01*
X3422Y9918D01*
X3408Y9893D01*
X3391Y9874D01*
X3371Y9859D01*
X3350Y9848D01*
X3326Y9842D01*
X3301Y9840D01*
X3271Y9843D01*
X3243Y9851D01*
X3217Y9865D01*
X3194Y9884D01*
X3175Y9907D01*
X3162Y9933D01*
X3154Y9961D01*
X3151Y9992D01*
X3153Y10021D01*
X3161Y10048D01*
X3174Y10072D01*
X3191Y10093D01*
X3213Y10111D01*
X3237Y10123D01*
X3264Y10131D01*
X3293Y10133D01*
X3307Y10133D01*
X3322Y10131D01*
X3338Y10128D01*
X3356Y10123D01*
X3346Y10202D01*
X3342Y10201D01*
X3338Y10201D01*
X3335Y10201D01*
X3332Y10201D01*
X3304Y10203D01*
X3278Y10208D01*
X3253Y10217D01*
X3229Y10230D01*
X3209Y10247D01*
X3195Y10268D01*
X3187Y10293D01*
X3184Y10322D01*
X3186Y10346D01*
X3192Y10367D01*
X3202Y10386D01*
X3217Y10404D01*
X3235Y10418D01*
X3255Y10428D01*
X3278Y10434D01*
X3303Y10436D01*
X3328Y10434D01*
X3351Y10428D01*
X3371Y10417D01*
X3390Y10403D01*
X3405Y10385D01*
X3418Y10362D01*
X3428Y10336D01*
X3434Y10305D01*
X3524Y10321D01*
X3513Y10363D01*
X3497Y10400D01*
X3476Y10433D01*
X3449Y10460D01*
X3418Y10481D01*
X3384Y10497D01*
X3346Y10506D01*
X3305Y10509D01*
X3276Y10508D01*
X3248Y10503D01*
X3221Y10495D01*
X3195Y10484D01*
X3172Y10470D01*
X3151Y10454D01*
X3133Y10435D01*
X3118Y10414D01*
X3107Y10392D01*
X3099Y10368D01*
X3094Y10345D01*
X3092Y10320D01*
X3094Y10297D01*
X3098Y10275D01*
X3106Y10254D01*
X3117Y10234D01*
X3131Y10216D01*
X3149Y10200D01*
X3169Y10185D01*
X3192Y10173D01*
X3162Y10163D01*
X3135Y10150D01*
X3112Y10133D01*
X3092Y10111D01*
X3076Y10086D01*
X3065Y10058D01*
X3058Y10028D01*
X3056Y9994D01*
X3061Y9948D01*
X3074Y9906D01*
X3095Y9867D01*
X3126Y9832D01*
X3163Y9803D01*
X3204Y9783D01*
X3251Y9770D01*
X3301Y9766D01*
X3347Y9770D01*
X3389Y9780D01*
X3427Y9798D01*
X3460Y9823D01*
X3489Y9854D01*
X3510Y9889D01*
X3525Y9928D01*
X3532Y9971D01*
X3532Y9971D01*
X3762Y7239D02*
X3851Y7239D01*
X3851Y7808D01*
X3868Y7793D01*
X3888Y7777D01*
X3911Y7762D01*
X3936Y7747D01*
X3961Y7732D01*
X3985Y7720D01*
X4008Y7709D01*
X4030Y7700D01*
X4030Y7787D01*
X3993Y7805D01*
X3959Y7826D01*
X3928Y7848D01*
X3899Y7872D01*
X3873Y7897D01*
X3851Y7921D01*
X3833Y7945D01*
X3819Y7969D01*
X3762Y7969D01*
X3762Y7239D01*
X3762Y7239D01*
X3247Y7239D02*
X3247Y7413D01*
X3562Y7413D01*
X3562Y7495D01*
X3303Y7863D01*
X3247Y7823D01*
X3474Y7495D01*
X3247Y7495D01*
X3247Y7495D01*
X3247Y7823D01*
X3303Y7863D01*
X3230Y7966D01*
X3157Y7966D01*
X3157Y7495D01*
X3059Y7495D01*
X3059Y7413D01*
X3157Y7413D01*
X3157Y7239D01*
X3247Y7239D01*
X3247Y7239D01*
X3762Y4699D02*
X3851Y4699D01*
X3851Y5268D01*
X3868Y5253D01*
X3888Y5237D01*
X3911Y5222D01*
X3936Y5207D01*
X3961Y5192D01*
X3985Y5180D01*
X4008Y5169D01*
X4030Y5160D01*
X4030Y5247D01*
X3993Y5265D01*
X3959Y5286D01*
X3928Y5308D01*
X3899Y5332D01*
X3873Y5357D01*
X3851Y5381D01*
X3833Y5405D01*
X3819Y5429D01*
X3762Y5429D01*
X3762Y4699D01*
X3762Y4699D01*
X3533Y4889D02*
X3439Y4897D01*
X3432Y4865D01*
X3422Y4837D01*
X3408Y4814D01*
X3391Y4794D01*
X3371Y4779D01*
X3349Y4769D01*
X3325Y4762D01*
X3299Y4760D01*
X3268Y4763D01*
X3240Y4772D01*
X3214Y4787D01*
X3190Y4809D01*
X3171Y4835D01*
X3157Y4865D01*
X3148Y4899D01*
X3146Y4938D01*
X3148Y4974D01*
X3156Y5006D01*
X3170Y5034D01*
X3188Y5058D01*
X3212Y5077D01*
X3238Y5091D01*
X3268Y5100D01*
X3301Y5102D01*
X3322Y5101D01*
X3342Y5097D01*
X3361Y5091D01*
X3379Y5083D01*
X3395Y5072D01*
X3410Y5060D01*
X3422Y5047D01*
X3433Y5032D01*
X3517Y5043D01*
X3447Y5416D01*
X3085Y5416D01*
X3085Y5331D01*
X3375Y5331D01*
X3414Y5136D01*
X3381Y5156D01*
X3347Y5170D01*
X3313Y5178D01*
X3277Y5181D01*
X3231Y5177D01*
X3189Y5165D01*
X3151Y5144D01*
X3116Y5115D01*
X3088Y5080D01*
X3067Y5040D01*
X3055Y4995D01*
X3051Y4946D01*
X3054Y4898D01*
X3065Y4854D01*
X3083Y4813D01*
X3108Y4775D01*
X3146Y4736D01*
X3191Y4709D01*
X3242Y4692D01*
X3299Y4687D01*
X3347Y4690D01*
X3389Y4700D01*
X3428Y4718D01*
X3461Y4742D01*
X3489Y4772D01*
X3511Y4807D01*
X3525Y4846D01*
X3533Y4889D01*
X3533Y4889D01*
X5462Y3175D02*
X5202Y3852D01*
X5134Y3826D01*
X5141Y3791D01*
X5150Y3756D01*
X5161Y3722D01*
X5173Y3687D01*
X5253Y3474D01*
X5253Y3474D01*
X5006Y3474D01*
X5082Y3675D01*
X5098Y3719D01*
X5112Y3759D01*
X5124Y3794D01*
X5134Y3826D01*
X5202Y3852D01*
X5183Y3902D01*
X5080Y3902D01*
X4782Y3175D01*
X4891Y3175D01*
X4976Y3395D01*
X5280Y3395D01*
X5360Y3175D01*
X5462Y3175D01*
X5462Y3175D01*
X7800Y3175D02*
X7800Y3902D01*
X7527Y3902D01*
X7487Y3901D01*
X7452Y3897D01*
X7420Y3890D01*
X7393Y3880D01*
X7369Y3868D01*
X7348Y3852D01*
X7330Y3834D01*
X7314Y3812D01*
X7302Y3789D01*
X7293Y3765D01*
X7287Y3741D01*
X7286Y3716D01*
X7287Y3693D01*
X7292Y3671D01*
X7300Y3649D01*
X7311Y3628D01*
X7325Y3609D01*
X7343Y3591D01*
X7363Y3576D01*
X7387Y3562D01*
X7416Y3493D01*
X7429Y3499D01*
X7449Y3504D01*
X7474Y3508D01*
X7502Y3510D01*
X7535Y3511D01*
X7703Y3511D01*
X7703Y3261D01*
X7703Y3261D01*
X7522Y3261D01*
X7501Y3261D01*
X7483Y3262D01*
X7468Y3263D01*
X7457Y3264D01*
X7441Y3268D01*
X7426Y3272D01*
X7413Y3278D01*
X7401Y3284D01*
X7391Y3292D01*
X7381Y3301D01*
X7372Y3312D01*
X7365Y3325D01*
X7358Y3338D01*
X7354Y3353D01*
X7351Y3369D01*
X7350Y3386D01*
X7351Y3406D01*
X7355Y3424D01*
X7362Y3441D01*
X7371Y3457D01*
X7382Y3470D01*
X7396Y3482D01*
X7411Y3492D01*
X7416Y3493D01*
X7387Y3562D01*
X7422Y3620D01*
X7409Y3630D01*
X7399Y3641D01*
X7391Y3655D01*
X7385Y3670D01*
X7382Y3687D01*
X7380Y3705D01*
X7381Y3722D01*
X7385Y3739D01*
X7390Y3754D01*
X7398Y3769D01*
X7407Y3781D01*
X7419Y3792D01*
X7432Y3800D01*
X7447Y3806D01*
X7466Y3811D01*
X7491Y3814D01*
X7522Y3816D01*
X7558Y3816D01*
X7703Y3816D01*
X7703Y3597D01*
X7703Y3597D01*
X7546Y3597D01*
X7516Y3597D01*
X7491Y3599D01*
X7470Y3601D01*
X7454Y3605D01*
X7437Y3611D01*
X7422Y3620D01*
X7387Y3562D01*
X7356Y3551D01*
X7329Y3536D01*
X7306Y3518D01*
X7286Y3496D01*
X7270Y3472D01*
X7259Y3445D01*
X7253Y3417D01*
X7250Y3386D01*
X7252Y3361D01*
X7256Y3337D01*
X7263Y3313D01*
X7272Y3291D01*
X7283Y3270D01*
X7296Y3252D01*
X7310Y3236D01*
X7325Y3223D01*
X7342Y3212D01*
X7361Y3202D01*
X7382Y3194D01*
X7405Y3187D01*
X7430Y3182D01*
X7458Y3178D01*
X7489Y3176D01*
X7522Y3175D01*
X7800Y3175D01*
X7800Y3175D01*
X9944Y3430D02*
X9847Y3406D01*
X9866Y3350D01*
X9890Y3301D01*
X9920Y3260D01*
X9956Y3225D01*
X9998Y3198D01*
X10044Y3178D01*
X10094Y3166D01*
X10149Y3163D01*
X10205Y3166D01*
X10255Y3175D01*
X10300Y3190D01*
X10340Y3210D01*
X10374Y3237D01*
X10405Y3269D01*
X10431Y3306D01*
X10452Y3349D01*
X10469Y3395D01*
X10481Y3443D01*
X10488Y3493D01*
X10490Y3544D01*
X10488Y3599D01*
X10480Y3650D01*
X10466Y3698D01*
X10447Y3742D01*
X10423Y3782D01*
X10394Y3817D01*
X10361Y3846D01*
X10323Y3871D01*
X10282Y3890D01*
X10239Y3904D01*
X10194Y3912D01*
X10147Y3915D01*
X10095Y3911D01*
X10047Y3901D01*
X10003Y3883D01*
X9964Y3859D01*
X9929Y3829D01*
X9900Y3792D01*
X9877Y3750D01*
X9860Y3703D01*
X9955Y3681D01*
X9969Y3718D01*
X9986Y3749D01*
X10005Y3775D01*
X10028Y3796D01*
X10054Y3812D01*
X10082Y3823D01*
X10114Y3830D01*
X10149Y3832D01*
X10189Y3830D01*
X10226Y3822D01*
X10259Y3810D01*
X10289Y3792D01*
X10315Y3770D01*
X10337Y3745D01*
X10355Y3716D01*
X10368Y3684D01*
X10378Y3650D01*
X10385Y3615D01*
X10390Y3580D01*
X10391Y3545D01*
X10389Y3500D01*
X10384Y3458D01*
X10376Y3419D01*
X10364Y3383D01*
X10349Y3350D01*
X10330Y3322D01*
X10307Y3298D01*
X10280Y3279D01*
X10251Y3264D01*
X10221Y3254D01*
X10189Y3247D01*
X10157Y3245D01*
X10118Y3248D01*
X10082Y3257D01*
X10049Y3271D01*
X10020Y3292D01*
X9994Y3318D01*
X9973Y3350D01*
X9956Y3387D01*
X9944Y3430D01*
X9944Y3430D01*
X13003Y3175D02*
X13003Y3902D01*
X12754Y3902D01*
X12754Y3816D01*
X12906Y3816D01*
X12906Y3261D01*
X12906Y3261D01*
X12751Y3261D01*
X12717Y3262D01*
X12687Y3264D01*
X12661Y3268D01*
X12638Y3274D01*
X12619Y3282D01*
X12601Y3290D01*
X12586Y3300D01*
X12573Y3312D01*
X12557Y3331D01*
X12543Y3352D01*
X12530Y3377D01*
X12520Y3404D01*
X12511Y3434D01*
X12505Y3468D01*
X12502Y3504D01*
X12501Y3544D01*
X12503Y3598D01*
X12510Y3645D01*
X12522Y3686D01*
X12538Y3719D01*
X12558Y3748D01*
X12580Y3771D01*
X12603Y3789D01*
X12629Y3802D01*
X12651Y3808D01*
X12680Y3813D01*
X12714Y3816D01*
X12754Y3816D01*
X12754Y3902D01*
X12752Y3902D01*
X12712Y3902D01*
X12677Y3900D01*
X12647Y3896D01*
X12623Y3892D01*
X12593Y3883D01*
X12565Y3872D01*
X12539Y3857D01*
X12516Y3840D01*
X12489Y3814D01*
X12466Y3784D01*
X12446Y3752D01*
X12430Y3715D01*
X12417Y3676D01*
X12408Y3634D01*
X12403Y3590D01*
X12401Y3543D01*
X12403Y3502D01*
X12406Y3464D01*
X12412Y3429D01*
X12421Y3396D01*
X12431Y3365D01*
X12443Y3337D01*
X12456Y3312D01*
X12470Y3290D01*
X12486Y3270D01*
X12502Y3252D01*
X12519Y3237D01*
X12537Y3224D01*
X12555Y3213D01*
X12576Y3203D01*
X12599Y3194D01*
X12623Y3187D01*
X12650Y3182D01*
X12678Y3178D01*
X12708Y3176D01*
X12740Y3175D01*
X13003Y3175D01*
X13003Y3175D01*
X15541Y3175D02*
X15541Y3902D01*
X15015Y3902D01*
X15015Y3816D01*
X15444Y3816D01*
X15444Y3594D01*
X15042Y3594D01*
X15042Y3508D01*
X15444Y3508D01*
X15444Y3261D01*
X14998Y3261D01*
X14998Y3175D01*
X15541Y3175D01*
X15541Y3175D01*
G37*
M02*